<svg xmlns="http://www.w3.org/2000/svg" width="101.2" height="110.4" viewBox="0 0 101.2 110.4">
  <g id="Icon_ionic-ios-stats" data-name="Icon ionic-ios-stats" transform="translate(-5.625 -4.5)">
    <path id="Path_462" data-name="Path 462" d="M14.675,114.9h13.8a2.307,2.307,0,0,0,2.3-2.3V6.8a2.307,2.307,0,0,0-2.3-2.3h-13.8a2.307,2.307,0,0,0-2.3,2.3V112.6A2.307,2.307,0,0,0,14.675,114.9Z" transform="translate(20.85)" fill="#c2d500"/>
    <path id="Path_463" data-name="Path 463" d="M7.925,66.25h13.8a2.307,2.307,0,0,0,2.3-2.3V22.55a2.307,2.307,0,0,0-2.3-2.3H7.925a2.307,2.307,0,0,0-2.3,2.3v41.4A2.307,2.307,0,0,0,7.925,66.25Z" transform="translate(0 48.65)" fill="#c2d500"/>
    <path id="Path_464" data-name="Path 464" d="M21.454,80.15H35.2a2.319,2.319,0,0,0,2.329-2.329V18.079A2.319,2.319,0,0,0,35.2,15.75H21.454a2.319,2.319,0,0,0-2.329,2.329V77.821A2.319,2.319,0,0,0,21.454,80.15Z" transform="translate(41.7 34.75)" fill="#c2d500"/>
    <path id="Path_465" data-name="Path 465" d="M25.875,11.329V98.671A2.319,2.319,0,0,0,28.2,101H41.946a2.319,2.319,0,0,0,2.329-2.329V11.329A2.319,2.319,0,0,0,41.946,9H28.2A2.319,2.319,0,0,0,25.875,11.329Z" transform="translate(62.55 13.9)" fill="#c2d500"/>
  </g>
</svg>
