<svg xmlns="http://www.w3.org/2000/svg" width="170.377" height="108.245" viewBox="0 0 170.377 108.245">
  <path id="Path_444" data-name="Path 444" d="M131.211,41.722,108.91-5.763,90.455,3.1l22.3,47.485Zm-152.167-1.2L15.794,3.347,1.348-11.259-35.408,25.906ZM35.191,87.984A6.6,6.6,0,0,0,38.561,91.9a6.7,6.7,0,0,0,4.376.146,8.5,8.5,0,0,0,3.294-1.6c1.407-1.129,1.454-1.972,3.52-6.019,1.793-3.515,2.226-3.8,2.287-5.148A7.214,7.214,0,0,0,50.391,74.5a6.358,6.358,0,0,0-8.743-1.087c-1.228.842-1.826,1.826-3.51,5.515C34.876,86.054,34.951,87.127,35.191,87.984ZM23.225,81.095a7.515,7.515,0,0,0,1,2.466,6.884,6.884,0,0,0,4.659,2.682,6.827,6.827,0,0,0,5.157-1.158c1.167-.941,1.063-1.708,2.442-4.569,1.242-2.588,1.487-2.3,3.586-6.164,2.306-4.254,2.367-5.261,2.362-5.8a7,7,0,0,0-2.362-5.223,6.668,6.668,0,0,0-5.807-1.449c-1.525.381-2.014,1.2-6.094,6.889C26.5,71.1,23.1,75.824,23.008,78.85A9.694,9.694,0,0,0,23.225,81.095ZM11.108,74.351a7.063,7.063,0,0,0,2.3,5.077,6.622,6.622,0,0,0,5.873,1.016c3.445-1.016,3.463-4.249,8.607-12.183C31.069,63.35,32.415,62.5,32.326,60c-.1-2.645-1.765-6.259-5.157-7.106a7.088,7.088,0,0,0-6.456,1.887c-.936.922-.946,1.529-2.522,4.6-.946,1.826-1.049,1.826-2.583,4.565C12.529,69.457,10.99,72.253,11.108,74.351Zm-1.576-1.6H6.661c-2.781.042-4.828-2.583-5.308-3.181a10.11,10.11,0,0,1-1.868-4.2,12.794,12.794,0,0,1,2.781-9.708,12.817,12.817,0,0,1,4.7-3.779c3.261-1.525,8.522-2.141,10.6.579a5.469,5.469,0,0,1,1.576,4.988m-7.327-46.5c1.153.847,4.056,3.1,6.757,2.79.776-.089,2.169-.042,6.88-2.325M79.853,61.448h0m.188.475,5.934,2.645,0,0,.965.574c2.042,1.228,2.193,1.454,3.882,2.4,3.365,1.882,5.082,2.819,6.87,2.6a6.244,6.244,0,0,0,4.734-3.261c1.247-2.56-.033-5.43-.645-6.748C99.024,54.183,93.542,53.3,80.714,46c-5.614-3.2-5.233-3.412-13.976-8.484C55.892,31.233,57.36,32.748,55.125,31c-3.35-2.63-5.873-5.482-8.818-4.786-1.106.259-1.285.767-3.012,1.958-3.816,2.621-7.524,3.27-11.181,3.915-3.619.635-5.463.932-7.1-.221-1.3-.918-2.5-2.743-2.15-4.348a3.814,3.814,0,0,1,1.722-2.174c5.157-3.525,5.176-6.8,15.486-13.7,4.95-3.318,7.426-4.974,10.32-5.656,1.021-.24,4.852-.235,12.475-.216,4.654.014,5.887.047,7.529.871,2.259,1.134,2.183,2.207,5.8,4.565a17.285,17.285,0,0,0,5.6,2.612,11.591,11.591,0,0,0,4.729.216,11.189,11.189,0,0,0,4.946-2.174M14.331,66.836l-.221-.188M36.462,82.742l-.758-.471m55-14.8a13.979,13.979,0,0,1-.325,5.186,7.325,7.325,0,0,1-2.438,3.873A7.583,7.583,0,0,1,82.93,78.7c-2.165-.047-2.988-1.431-6.447-3.92-.979-.692-1.892-1.294-2.739-1.774a9.539,9.539,0,0,1,2.673,3.134c.292.579,1.934,3.736.386,6.847A6.744,6.744,0,0,1,71.9,86.516c-.791.113-2.094.113-6.169-2.122-1.007-.532-1.99-1.129-2.875-1.685a41.191,41.191,0,0,1-4.033-2.7l-.047-.024m4.08,2.72A7.127,7.127,0,0,1,62,92.878c-2.753,2.188-7.449-.188-10.324-1.638-1.435-.715-2.823-1.454-4.216-2.193h-.019M24.392,74.657l-.16-.118M-5.974,45.887c1.045,1.322,4.442,5.487,6.762,8.164,0,0,.489.574,1.478,1.609" transform="translate(37.342 13.214)" fill="none" stroke="#639c67" stroke-width="2.75"/>
</svg>
