<svg xmlns="http://www.w3.org/2000/svg" xmlns:xlink="http://www.w3.org/1999/xlink" width="60.455" height="90.692" viewBox="0 0 60.455 90.692">
  <defs>
    <clipPath id="clip-path">
      <path id="Path_4" data-name="Path 4" d="M0-48.19H60.454v-90.692H0Z" transform="translate(0 138.882)" fill="none"/>
    </clipPath>
  </defs>
  <g id="Group_25" data-name="Group 25" transform="translate(0 138.882)">
    <path id="Path_1" data-name="Path 1" d="M0-48.19H60.455v-90.692H0Z" transform="translate(0 0)" fill="#fff"/>
    <g id="Group_3" data-name="Group 3" transform="translate(0 -138.882)" clip-path="url(#clip-path)">
      <g id="Group_1" data-name="Group 1" transform="translate(12.002 7.357)">
        <path id="Path_2" data-name="Path 2" d="M-17.894-.06l-.217.978a9.092,9.092,0,0,0-2.587,0,5.612,5.612,0,0,0-2.914,1.725c-1.635,1.635-2.224,4.122-3.268,8.572l-3.657,17.315-.552,2.591H-20.22l-.413,1.487H-31.41l-6.249,29.2c-.916,4.119-1.77,7.715-4.906,10.727a11.433,11.433,0,0,1-7.984,3.272l-1.021-.022.175-.954a5.709,5.709,0,0,0,.946-.041,5.3,5.3,0,0,0,3.763-2.037c1.546-1.983,2.223-3.885,3.272-8.332l6.872-31.813H-46.4l.41-1.487h9.768l.588-2.724,2.993-14.567c.92-4.123,1.768-7.716,4.911-10.728A11.387,11.387,0,0,1-19.8-.172s1.17.011,1.9.112" transform="translate(51.57 0.172)" fill="#b8c5c6"/>
      </g>
      <g id="Group_2" data-name="Group 2" transform="translate(39.784 45.915)">
        <path id="Path_3" data-name="Path 3" d="M-3.132-1.566A2.949,2.949,0,0,1-6.078,1.385,2.948,2.948,0,0,1-9.027-1.566,2.947,2.947,0,0,1-6.078-4.514,2.948,2.948,0,0,1-3.132-1.566" transform="translate(9.027 4.514)" fill="#b8c5c6"/>
      </g>
    </g>
  </g>
</svg>
