<svg xmlns="http://www.w3.org/2000/svg" xmlns:xlink="http://www.w3.org/1999/xlink" width="114.111" height="171.187" viewBox="0 0 114.111 171.187">
  <defs>
    <clipPath id="clip-path">
      <path id="Path_4" data-name="Path 4" d="M0,32.3H114.111V-138.882H0Z" transform="translate(0 138.882)" fill="none"/>
    </clipPath>
  </defs>
  <g id="Group_3" data-name="Group 3" clip-path="url(#clip-path)">
    <g id="Group_1" data-name="Group 1" transform="translate(22.655 13.886)">
      <path id="Path_2" data-name="Path 2" d="M12,.04l-.41,1.845a17.161,17.161,0,0,0-4.882,0A10.593,10.593,0,0,0,1.2,5.142c-3.086,3.086-4.2,7.78-6.168,16.18l-6.9,32.684L-12.911,58.9H7.606L6.826,61.7H-13.516l-11.795,55.116c-1.728,7.774-3.34,14.563-9.261,20.248a21.58,21.58,0,0,1-15.071,6.177l-1.928-.042.33-1.8a10.777,10.777,0,0,0,1.785-.078,10,10,0,0,0,7.1-3.844c2.919-3.742,4.2-7.334,6.175-15.727L-23.2,61.7H-41.81l.774-2.807H-22.6l1.109-5.141,5.65-27.5C-14.1,18.476-12.5,11.694-6.568,6.01A21.494,21.494,0,0,1,8.4-.172s2.208.021,3.6.212" transform="translate(51.57 0.172)" fill="#fff"/>
    </g>
    <g id="Group_2" data-name="Group 2" transform="translate(75.094 86.668)">
      <path id="Path_3" data-name="Path 3" d="M2.1,1.05a5.567,5.567,0,0,1-5.56,5.57A5.565,5.565,0,0,1-9.027,1.05,5.562,5.562,0,0,1-3.461-4.514,5.564,5.564,0,0,1,2.1,1.05" transform="translate(9.027 4.514)" fill="#fff"/>
    </g>
  </g>
</svg>
