<?xml version="1.0" encoding="UTF-8"?>
<svg width="32px" height="77px" viewBox="0 0 32 77" version="1.1" xmlns="http://www.w3.org/2000/svg" xmlns:xlink="http://www.w3.org/1999/xlink">
    <title>app</title>
    <g id="Page-1" stroke="none" stroke-width="1" fill="none" fill-rule="evenodd">
        <g id="app" transform="translate(0.174658, 0.927514)">
            <rect id="Rectangle" stroke="#FFFFFF" stroke-width="0.740283775" stroke-linecap="round" x="0.428365207" y="-2.6300163e-15" width="29.0302283" height="45.1610117" rx="1.14743985"></rect>
            <line x1="0.428365207" y1="6.4515731" x2="29.4585935" y2="6.4515731" id="Path" stroke="#FFFFFF" stroke-width="0.740283775" stroke-linecap="round"></line>
            <line x1="0.428365207" y1="37.09562" x2="29.4585935" y2="37.09562" id="Path" stroke="#FFFFFF" stroke-width="0.740283775" stroke-linecap="round"></line>
            <circle id="Oval" stroke="#FFFFFF" stroke-width="0.740283775" stroke-linecap="round" cx="14.9416286" cy="41.1301666" r="2.42072795"></circle>
            <path d="M1.59915361,71.8815546 L2.95101542,68.5513584 L8.32549044,68.5513584 L9.66086613,71.8815546 L11.3424503,71.8815546 L6.41310056,59.9456039 L4.91286366,59.9456039 L0,71.8815546 L1.59915361,71.8815546 Z M7.78144849,67.1830105 L3.49505737,67.1830105 L4.46773843,64.7595509 C4.87989143,63.7374115 5.2755583,62.7317582 5.63825293,61.7590771 L5.67122517,61.7590771 C6.0339198,62.7317582 6.42958667,63.7538976 6.80876743,64.7100925 L7.78144849,67.1830105 Z M14.2110352,75.5085009 L14.2110352,71.6342628 L14.2440074,71.6177767 C14.7550771,71.8650685 15.431008,72.0629019 16.2388279,72.0629019 C18.5798569,72.0629019 20.4757606,70.3978038 20.4757606,67.7929969 C20.4757606,65.2871067 18.728232,63.5890364 16.5520642,63.5890364 C15.5958692,63.5890364 14.8045355,63.9187588 14.2440074,64.3144257 L14.2110352,64.2979395 L14.2110352,63.7703837 L12.7272844,63.7703837 L12.7272844,75.5085009 L14.2110352,75.5085009 Z M16.2718001,70.7604985 C15.4804664,70.7604985 14.7221049,70.4802344 14.2110352,70.1999704 L14.2110352,65.6662875 C14.7880494,65.18819 15.5793831,64.9244121 16.3047724,64.9244121 C17.9204121,64.9244121 18.9755238,66.2597878 18.9755238,67.9083998 C18.9755238,69.5734978 17.8874399,70.7604985 16.2718001,70.7604985 Z M24.0202764,75.5085009 L24.0202764,71.6342628 L24.0532486,71.6177767 C24.5643183,71.8650685 25.2402492,72.0629019 26.0480691,72.0629019 C28.3890981,72.0629019 30.2850019,70.3978038 30.2850019,67.7929969 C30.2850019,65.2871067 28.5374732,63.5890364 26.3613054,63.5890364 C25.4051104,63.5890364 24.6137767,63.9187588 24.0532486,64.3144257 L24.0202764,64.2979395 L24.0202764,63.7703837 L22.5365256,63.7703837 L22.5365256,75.5085009 L24.0202764,75.5085009 Z M26.0810413,70.7604985 C25.2897076,70.7604985 24.5313461,70.4802344 24.0202764,70.1999704 L24.0202764,65.6662875 C24.5972906,65.18819 25.3886243,64.9244121 26.1140136,64.9244121 C27.7296533,64.9244121 28.784765,66.2597878 28.784765,67.9083998 C28.784765,69.5734978 27.6966811,70.7604985 26.0810413,70.7604985 Z" id="App" fill="#FFFFFF" fill-rule="nonzero"></path>
            <rect id="Rectangle" fill="#FFFFFF" fill-rule="nonzero" transform="translate(14.907167, 22.457810) rotate(-89.880000) translate(-14.907167, -22.457810) " x="4.52838846" y="15.4140103" width="20.7575571" height="14.0876002"></rect>
            <g id="Group" transform="translate(11.143973, 13.573103)" fill="#C2D500" fill-rule="nonzero">
                <path d="M6.38123585,9.73103023 C6.38123585,9.45856091 6.5453777,9.21292067 6.79710653,9.10865117 C7.04883536,9.00438168 7.33858778,9.06201702 7.53125269,9.25468192 C7.72391759,9.44734683 7.78155293,9.73709924 7.67728344,9.98882807 C7.57301394,10.2405569 7.3273737,10.4046988 7.05490438,10.4046988 C6.87593698,10.40568 6.70401267,10.3350239 6.57746167,10.2084729 C6.45091067,10.0819219 6.38025461,9.90999762 6.38123585,9.73103023" id="Path"></path>
                <path d="M1.30289944,7.38062924 L3.52375077,7.38062924 L3.66070327,6.75879087 L4.3528686,3.42751388 C4.56384948,2.48735349 4.76002468,1.66193708 5.48180136,0.977174584 C5.96710707,0.501672354 6.61976969,0.235822001 7.29919803,0.236887598 C7.44517071,0.236887598 7.59101458,0.245559264 7.73596545,0.26280074 L7.68784701,0.488587292 C7.49150114,0.459613256 7.29196585,0.459613256 7.09561999,0.488587292 C6.8363462,0.547213194 6.60201374,0.685741225 6.42566317,0.884639112 C6.05552128,1.254781 5.91486737,1.82479951 5.6853794,2.8426897 L4.83775447,6.79950648 L4.70820481,7.39543492 L7.19925972,7.39543492 L7.10302283,7.73226403 L4.63787785,7.73226403 L3.19062307,14.394818 C2.9796422,15.3349784 2.783467,16.1603948 2.08019741,16.8451573 C1.59215164,17.3233659 0.934965227,17.5894333 0.251696484,17.5854854 L0.0185070944,17.5854854 L0.059222702,17.3707588 C0.131906681,17.3764335 0.204922436,17.3764335 0.277606416,17.3707588 C0.617864424,17.3434544 0.930908045,17.174169 1.14003701,16.90438 C1.5101789,16.4528069 1.65083282,16.0160395 1.88032079,15.0018507 L3.46822949,7.72115978 L1.21406539,7.72115978 L1.30289944,7.38062924 Z" id="Path"></path>
            </g>
        </g>
    </g>
</svg>