<?xml version="1.0" encoding="UTF-8"?>
<svg width="102px" height="81px" viewBox="0 0 102 81" version="1.1" xmlns="http://www.w3.org/2000/svg" xmlns:xlink="http://www.w3.org/1999/xlink">
    <title>click</title>
    <g id="Page-1" stroke="none" stroke-width="1" fill="none" fill-rule="evenodd">
        <g id="click" transform="translate(0.935339, 0.570523)">
            <g id="Group-3" transform="translate(0.000000, 3.239162)">
                <polygon id="Path" stroke="#FFFFFF" stroke-width="0.740283775" stroke-linecap="round" stroke-linejoin="round" points="50.8515213 14.5169648 50.8515213 48.8698334 31.496802 40.3195558 31.496802 4.83775447"></polygon>
                <polyline id="Path" stroke="#FFFFFF" stroke-width="0.740283775" stroke-linecap="round" points="50.8515213 14.5169648 55.6892758 14.5169648 55.6892758 41.9333745 50.8515213 48.8698334"></polyline>
                <polyline id="Path" stroke="#FFFFFF" stroke-width="0.740283775" stroke-linecap="round" stroke-linejoin="round" points="31.496802 4.83775447 38.089029 4.83775447 39.5584923 0 61.1414658 11.2893276 55.6892758 14.5169648"></polyline>
                <polyline id="Path" stroke="#FFFFFF" stroke-width="0.740283775" stroke-linecap="round" stroke-linejoin="round" points="81.1809476 23.5299198 75.2919901 26.465145 59.7201209 17.4595928 76.2395534 9.67550895 92.7848957 17.7409007 86.1556545 21.0462677"></polyline>
                <polyline id="Path" stroke="#FFFFFF" stroke-width="0.740283775" stroke-linecap="round" points="92.7848957 17.7409007 92.7848957 38.7094386 75.0439951 46.7711289 59.7201209 39.7495373 59.7201209 17.4595928"></polyline>
                <path d="M6.24823936,75.9197804 C7.50118445,75.9197804 8.80358791,75.6065441 9.75978285,74.9965577 L9.75978285,73.2655151 C8.82007403,74.0238766 7.64955953,74.4690019 6.33066996,74.4690019 C3.47857125,74.4690019 1.56618137,72.424723 1.56618137,69.7704577 C1.56618137,67.1161925 3.47857125,65.0719136 6.198781,65.0719136 C7.46821221,65.0719136 8.68818507,65.5170389 9.57843553,66.1764837 L9.57843553,64.4619272 C8.63872671,63.9343714 7.46821221,63.6211351 6.21526712,63.6211351 C2.47291795,63.6211351 0,66.4072893 0,69.80343 C0,73.2984874 2.62129303,75.9197804 6.24823936,75.9197804 Z M13.3372708,75.7384331 L13.3372708,63.1430376 L11.85352,63.1430376 L11.85352,75.7384331 L13.3372708,75.7384331 Z M16.6839531,65.8797335 C17.2609673,65.8797335 17.7225787,65.4181221 17.7225787,64.841108 C17.7225787,64.2640938 17.2609673,63.8024824 16.6839531,63.8024824 C16.1069389,63.8024824 15.6453276,64.2640938 15.6453276,64.841108 C15.6453276,65.4181221 16.1069389,65.8797335 16.6839531,65.8797335 Z M17.4258285,75.7384331 L17.4258285,67.6272622 L15.9420777,67.6272622 L15.9420777,75.7384331 L17.4258285,75.7384331 Z M23.8719013,75.9197804 C24.6962073,75.9197804 25.6029439,75.7384331 26.2953609,75.3592523 L26.2953609,73.7765848 C25.6853745,74.2546823 24.8775546,74.5679186 23.9543319,74.5679186 C22.2068032,74.5679186 20.9703442,73.3974041 20.9703442,71.732306 C20.9703442,70.1001801 22.1408587,68.7977767 23.9048735,68.7977767 C24.6962073,68.7977767 25.487541,69.0615546 26.1634719,69.4901937 L26.1634719,67.9569846 C25.5864577,67.6602344 24.8116101,67.4459149 23.970818,67.4459149 C21.4484417,67.4459149 19.4701073,69.2264158 19.4701073,71.732306 C19.4701073,74.1392795 21.3000666,75.9197804 23.8719013,75.9197804 Z M29.9223072,75.7384331 L29.9223072,71.3531252 L29.9552795,71.3366391 L33.9284343,75.7384331 L35.8737964,75.7384331 L31.7687526,71.2542085 L35.4781295,67.6272622 L33.5822258,67.6272622 L29.9552795,71.2047502 L29.9223072,71.188264 L29.9223072,63.1430376 L28.4385564,63.1430376 L28.4385564,75.7384331 L29.9223072,75.7384331 Z M40.7866601,75.9197804 C42.5341888,75.9197804 43.6882171,75.2273634 44.3311758,74.3206268 L45.7489821,75.7384331 L47.6283998,75.7384331 L47.6448859,75.7054608 L44.9411622,72.9852511 L46.3589685,68.5834571 L44.8257594,68.5834571 L43.80362,71.8477088 L41.462591,69.4901937 L42.1385219,69.0450685 C43.1276891,68.4021098 43.7706477,67.5283455 43.7706477,66.4072893 C43.7706477,64.8575941 42.5506749,63.6211351 40.7372017,63.6211351 C39.0226453,63.6211351 37.6872696,64.7421912 37.6872696,66.4072893 C37.6872696,67.3964565 38.1653671,68.1383319 38.8907563,68.8802073 L39.253451,69.259388 L38.8577841,69.4901937 C37.4234917,70.3309858 36.7970191,71.3696114 36.7970191,72.556612 C36.7970191,74.3206268 38.1488809,75.9197804 40.7866601,75.9197804 Z M40.5063961,68.5339988 L39.9953263,68.0064429 C39.4347983,67.4294287 39.1710204,66.9678174 39.1710204,66.4237754 C39.1710204,65.6324417 39.7480345,64.989483 40.7042295,64.989483 C41.59448,64.989483 42.286897,65.5500111 42.286897,66.4402616 C42.286897,67.1491647 41.8417717,67.6437483 41.2482714,68.0394152 L40.5063961,68.5339988 Z M40.8361184,74.5679186 C39.1710204,74.5679186 38.2807699,73.5787514 38.2807699,72.5071536 C38.2807699,71.7817643 38.6929229,71.1058334 39.5996595,70.5782776 L40.226132,70.215583 L43.2430919,73.249029 C42.8144528,74.0403627 42.0396052,74.5679186 40.8361184,74.5679186 Z M54.3382505,75.9197804 C55.5911956,75.9197804 56.893599,75.6065441 57.849794,74.9965577 L57.849794,73.2655151 C56.9100851,74.0238766 55.7395706,74.4690019 54.4206811,74.4690019 C51.5685824,74.4690019 49.6561925,72.424723 49.6561925,69.7704577 C49.6561925,67.1161925 51.5685824,65.0719136 54.2887921,65.0719136 C55.5582233,65.0719136 56.7781962,65.5170389 57.6684466,66.1764837 L57.6684466,64.4619272 C56.7287378,63.9343714 55.5582233,63.6211351 54.3052782,63.6211351 C50.5629291,63.6211351 48.0900111,66.4072893 48.0900111,69.80343 C48.0900111,73.2984874 50.7113041,75.9197804 54.3382505,75.9197804 Z M63.6693942,75.9197804 C66.125826,75.9197804 67.9557853,74.073335 67.9557853,71.6828476 C67.9557853,69.2923603 66.125826,67.4459149 63.6693942,67.4459149 C61.2129624,67.4459149 59.3830031,69.2923603 59.3830031,71.6828476 C59.3830031,74.073335 61.2129624,75.9197804 63.6693942,75.9197804 Z M63.6693942,74.5679186 C62.0537545,74.5679186 60.8667539,73.3149735 60.8667539,71.6828476 C60.8667539,70.0507218 62.0537545,68.7977767 63.6693942,68.7977767 C65.2850339,68.7977767 66.4720345,70.0507218 66.4720345,71.6828476 C66.4720345,73.3149735 65.2850339,74.5679186 63.6693942,74.5679186 Z M71.4838149,75.7384331 L71.4838149,63.1430376 L70.0000642,63.1430376 L70.0000642,75.7384331 L71.4838149,75.7384331 Z M75.5723726,75.7384331 L75.5723726,63.1430376 L74.0886218,63.1430376 L74.0886218,75.7384331 L75.5723726,75.7384331 Z M82.0019593,75.9197804 C83.0570709,75.9197804 84.1781271,75.6230302 84.9035163,75.1614189 L84.9035163,73.5787514 C84.161641,74.1392795 83.2219321,74.5844047 82.100876,74.5844047 C80.5017224,74.5844047 79.3147218,73.7106403 79.1004022,72.1114867 L85.2991832,72.1114867 C85.3321555,71.9136533 85.3486416,71.6169031 85.3486416,71.3696114 C85.3486416,68.8307489 83.6340851,67.4459149 81.6557508,67.4459149 C79.479583,67.4459149 77.6166514,69.1274991 77.6166514,71.6828476 C77.6166514,74.2381962 79.4960691,75.9197804 82.0019593,75.9197804 Z M83.9143492,70.9409722 L79.1333745,70.9409722 C79.3971524,69.4407353 80.5511808,68.7812906 81.6227785,68.7812906 C82.5954596,68.7812906 83.7824602,69.3253325 83.9143492,70.9409722 Z M91.3001308,75.9197804 C92.1244368,75.9197804 93.0311733,75.7384331 93.7235904,75.3592523 L93.7235904,73.7765848 C93.1136039,74.2546823 92.3057841,74.5679186 91.3825614,74.5679186 C89.6350327,74.5679186 88.3985737,73.3974041 88.3985737,71.732306 C88.3985737,70.1001801 89.5690882,68.7977767 91.333103,68.7977767 C92.1244368,68.7977767 92.9157705,69.0615546 93.5917014,69.4901937 L93.5917014,67.9569846 C93.0146872,67.6602344 92.2398396,67.4459149 91.3990475,67.4459149 C88.8766712,67.4459149 86.8983368,69.2264158 86.8983368,71.732306 C86.8983368,74.1392795 88.7282961,75.9197804 91.3001308,75.9197804 Z M98.9496903,75.9197804 C99.5102184,75.9197804 100.087233,75.7878914 100.416955,75.6230302 L100.416955,74.2217101 C100.103719,74.4195435 99.6256212,74.5679186 99.1969821,74.5679186 C98.1253843,74.5679186 97.9770093,73.6446959 97.9770093,72.6390426 L97.9770093,68.9626379 L100.416955,68.9626379 L100.416955,67.6272622 L97.9770093,67.6272622 L97.9770093,65.1708304 L96.4932585,65.4181221 L96.4932585,67.6272622 L94.9930216,67.6272622 L94.9930216,68.9626379 L96.4932585,68.9626379 L96.4932585,72.9193066 C96.4932585,74.0568489 96.707578,74.7162936 97.1032449,75.1614189 C97.6308007,75.7714053 98.35619,75.9197804 98.9496903,75.9197804 Z" id="Click&amp;Collect" fill="#FFFFFF" fill-rule="nonzero"></path>
                <line x1="56.4628723" y1="41.9333745" x2="64.4875484" y2="41.9333745" id="Path" stroke="#FFFFFF" stroke-width="0.740283775" stroke-linecap="round" stroke-linejoin="round"></line>
                <line x1="61.1414658" y1="11.2893276" x2="61.1414658" y2="16.789636" id="Path" stroke="#FFFFFF" stroke-width="0.740283775" stroke-linecap="round" stroke-linejoin="round"></line>
                <polyline id="Path" stroke="#FFFFFF" stroke-width="0.740283775" stroke-linecap="round" stroke-linejoin="round" points="70.98724 12.1517582 86.1149389 20.9685379 86.3333226 29.0302283 81.3623171 31.6915484 81.3623171 23.8963603 65.968116 14.5169648"></polyline>
                <rect id="Rectangle" stroke="#FFFFFF" stroke-width="0.740283775" stroke-linecap="round" x="7.18588279" y="16.8414559" width="14.4355336" height="20.7279457" rx="7.21776681"></rect>
                <rect id="Rectangle" stroke="#FFFFFF" stroke-width="0.740283775" stroke-linecap="round" x="12.7380111" y="21.6533004" width="3.33127699" height="4.78223319" rx="1.66563849"></rect>
                <line x1="7.18588279" y1="13.2695867" x2="9.03659223" y2="16.1011721" id="Path" stroke="#FFFFFF" stroke-width="0.740283775" stroke-linecap="round"></line>
                <line x1="19.9002566" y1="15.8531771" x2="21.7509661" y2="13.0215916" id="Path" stroke="#FFFFFF" stroke-width="0.740283775" stroke-linecap="round"></line>
                <line x1="14.4036496" y1="10.8451573" x2="14.4036496" y2="14.6872301" id="Path" stroke="#FFFFFF" stroke-width="0.740283775" stroke-linecap="round"></line>
                <line x1="75.0439951" y1="46.7711289" x2="75.0439951" y2="26.4355336" id="Path" stroke="#FFFFFF" stroke-width="0.740283775" stroke-linecap="round"></line>
            </g>
            <path d="M44.177863,5.64508476 C44.9625638,2.26198791 47.0945811,0.0411365788 49.2340012,0.000420971131 C50.8219099,-0.025488961 51.9989611,1.15156224 52.4616385,1.6142396 C55.6448587,4.80486267 54.3641678,10.2163371 54.1939025,10.8862939" id="Path" stroke="#FFFFFF" stroke-width="0.740283775" stroke-linecap="round" stroke-linejoin="round"></path>
            <path d="M38.6479432,11.26754 C39.4289426,7.88444318 41.5609599,5.66359185 43.7040814,5.62287625 C45.2882887,5.59696631 46.4653399,6.77401752 46.9280173,7.23669488 C50.1149389,10.4273179 48.8305466,15.8387923 48.6639827,16.5087492" id="Path" stroke="#FFFFFF" stroke-width="0.740283775" stroke-linecap="round" stroke-linejoin="round"></path>
        </g>
    </g>
</svg>