<?xml version="1.0" encoding="UTF-8"?>
<svg width="77px" height="82px" viewBox="0 0 77 82" version="1.1" xmlns="http://www.w3.org/2000/svg" xmlns:xlink="http://www.w3.org/1999/xlink">
    <title>cliente</title>
    <g id="Page-1" stroke="none" stroke-width="1" fill="none" fill-rule="evenodd">
        <g id="cliente" transform="translate(0.667798, 0.551587)">
            <path d="M65.1523751,15.2685856 L65.1523751,20.9465622 C65.1523751,24.9603603 61.9039764,28.2170503 57.8901912,28.2272531 L56.3207896,28.2272531 C52.3012206,28.2252096 49.0438001,24.9661317 49.0438001,20.9465622 L49.0438001,12.9181846" id="Path" stroke="#C2D403" stroke-width="0.740283775"></path>
            <path d="M65.1523751,33.1501402 L65.6150524,33.3204055 C71.6623598,35.6733458 75.6424995,41.5001998 75.6348045,47.9891285 L75.6348045,53.2377405 L38.5391733,53.2377405 L38.5391733,47.9891285 C38.5404672,41.1996771 42.8985204,35.1775043 49.3473165,33.0539033" id="Path" stroke="#C2D403" stroke-width="0.740283775"></path>
            <path d="M48.2183837,17.7411334 C48.5885256,12.0002327 50.1320173,10.2420588 51.4423196,9.67944311 C53.1079581,8.96136785 54.6107341,10.0903006 57.8938927,9.67944311 C59.5946753,9.45510081 61.2368018,8.90730649 62.7316471,8.06562448 C62.5090456,9.12874237 62.5090456,10.2264424 62.7316471,11.2895603 C63.1879421,13.2400353 64.334344,14.9596382 65.9592844,16.1310162 C66.5626157,15.2130643 68.0283775,12.7220094 67.573103,9.67944311 C66.8698334,5.030461 62.120913,2.02120745 57.8938927,1.61405137 C53.6668723,1.2068953 48.3405305,3.3055998 46.6045651,8.06562448 C44.8352869,12.9144832 47.9148674,17.3228731 48.2183837,17.7411334 Z" id="Path" stroke="#C2D403" stroke-width="0.740283775" stroke-linejoin="round"></path>
            <path d="M64.8969772,32.8614295 C64.0049352,35.2969632 60.8439235,37.0958527 57.0869833,37.0958527 C53.4225787,37.0958527 50.3281925,35.3820958 49.3473165,33.024292" id="Path" stroke="#C2D403" stroke-width="0.740283775"></path>
            <path d="M52.9080814,27.8608126 C52.5479911,28.8536796 52.0495514,29.7907462 51.4275139,30.6442796 C50.698833,31.6493994 49.8067588,32.5252085 48.7884022,33.2352728" id="Path" stroke="#C2D403" stroke-width="0.740283775" stroke-linecap="round"></path>
            <path d="M61.0993214,27.8052913 C61.8809337,29.9780576 63.3145619,31.8563819 65.2041949,33.183453" id="Path" stroke="#C2D403" stroke-width="0.740283775" stroke-linecap="round"></path>
            <path d="M26.6095003,32.2617997 L27.0721777,32.4320649 C33.1152169,34.7827127 37.09562,40.601858 37.09562,47.0859823 L37.09562,52.3345942 L0,52.3345942 L0,47.0859823 C0,40.2961564 4.35862986,34.2733769 10.8081431,32.1507571" id="Path" stroke="#C2D403" stroke-width="0.740283775"></path>
            <path d="M26.3578038,31.973089 C25.4620605,34.4086226 22.3047502,36.2075122 18.54781,36.2075122 C14.8797039,36.2075122 11.7853177,34.4937553 10.8044417,32.1359514" id="Path" stroke="#C2D403" stroke-width="0.740283775"></path>
            <path d="M14.3652067,26.9724721 C13.5889532,29.1501024 12.1559828,31.0331392 10.2640345,32.361738" id="Path" stroke="#C2D403" stroke-width="0.740283775" stroke-linecap="round"></path>
            <path d="M22.5601481,26.9169508 C22.9187739,27.9104683 23.4173201,28.8477352 24.0407156,29.7004178 C24.7701208,30.7036525 25.6606392,31.5791621 26.6761258,32.291411" id="Path" stroke="#C2D403" stroke-width="0.740283775" stroke-linecap="round"></path>
            <path d="M26.6095003,14.3802451 L26.6095003,20.0582216 C26.6095003,24.0792362 23.3498239,27.3389126 19.3288094,27.3389126 L17.7631092,27.3389126 C13.7420946,27.3389126 10.4824183,24.0792362 10.4824183,20.0582216 L10.4824183,12.0298441 C19.5175817,15.9940637 20.7982727,6.45180585 20.7982727,6.45180585 C20.7982727,6.45180585 21.1314004,15.8571112 26.6095003,14.3802451 Z" id="Path" stroke="#C2D403" stroke-width="0.740283775" stroke-linecap="round" stroke-linejoin="round"></path>
            <path d="M7.62492289,32.361738 L4.68969772,27.4388509 C3.80375407,25.9508773 3.33573087,24.251416 3.33477051,22.5196652 L3.33477051,13.5659329 C3.32733381,12.4159593 3.53056952,11.2743266 3.93460827,10.1976418 C6.18662146,4.07960731 12.0098674,0.0107561121 18.5292074,0 C25.0485473,-0.0107135319 30.8851613,4.0389384 33.1573103,10.1495233 C33.569723,11.2397729 33.7780027,12.3966032 33.7718827,13.5622315 L33.7718827,23.3191717 C33.7718827,25.6448167 32.9273249,27.8913558 31.3954349,29.6411951 L28.4342998,33.0502019" id="Path" stroke="#C2D403" stroke-width="0.740283775" stroke-linecap="round" stroke-linejoin="round"></path>
            <path d="M11.9358914,80.876213 C13.1888365,80.876213 14.49124,80.5629767 15.4474349,79.9529903 L15.4474349,78.2219477 C14.5077261,78.9803092 13.3372116,79.4254345 12.018322,79.4254345 C9.16622332,79.4254345 7.25383344,77.3811556 7.25383344,74.7268904 C7.25383344,72.0726251 9.16622332,70.0283463 11.8864331,70.0283463 C13.1558643,70.0283463 14.3758371,70.4734715 15.2660876,71.1329163 L15.2660876,69.4183598 C14.3263788,68.890804 13.1558643,68.5775677 11.9029192,68.5775677 C8.16057002,68.5775677 5.68765207,71.3637219 5.68765207,74.7598626 C5.68765207,78.25492 8.3089451,80.876213 11.9358914,80.876213 Z M24.7785787,80.6948657 L24.7785787,79.2770594 L19.1403257,79.2770594 L19.1403257,68.758915 L17.5741444,68.758915 L17.5741444,80.6948657 L24.7785787,80.6948657 Z M28.1582332,80.6948657 L28.1582332,68.758915 L26.5920518,68.758915 L26.5920518,80.6948657 L28.1582332,80.6948657 Z M37.8685577,80.6948657 L37.8685577,79.2770594 L32.3951659,79.2770594 L32.3951659,75.1720156 L37.0607378,75.1720156 L37.0607378,73.8036677 L32.3951659,73.8036677 L32.3951659,70.1767213 L37.7201826,70.1767213 L37.7201826,68.758915 L30.8289846,68.758915 L30.8289846,80.6948657 L37.8685577,80.6948657 Z M41.4295595,80.6948657 L41.4295595,74.6939181 C41.4295595,73.5398897 41.4130734,72.336403 41.3965873,71.2977775 L41.4295595,71.2812913 C42.1054904,72.2210002 42.7979075,73.160709 43.4903245,74.0674456 L48.4856188,80.6948657 L49.9693695,80.6948657 L49.9693695,68.758915 L48.4526465,68.758915 L48.4526465,74.7598626 C48.4526465,75.913891 48.4691326,77.1173777 48.4856188,78.1560033 L48.4526465,78.1724894 C47.7767156,77.2327806 47.0842986,76.2930717 46.3918816,75.3863351 L41.3965873,68.758915 L39.9128365,68.758915 L39.9128365,80.6948657 L41.4295595,80.6948657 Z M57.2067761,80.6948657 L57.2067761,70.1767213 L61.2129031,70.1767213 L61.2129031,68.758915 L51.6344676,68.758915 L51.6344676,70.1767213 L55.6405947,70.1767213 L55.6405947,80.6948657 L57.2067761,80.6948657 Z M69.9175743,80.6948657 L69.9175743,79.2770594 L64.4441826,79.2770594 L64.4441826,75.1720156 L69.1097545,75.1720156 L69.1097545,73.8036677 L64.4441826,73.8036677 L64.4441826,70.1767213 L69.7691993,70.1767213 L69.7691993,68.758915 L62.8780012,68.758915 L62.8780012,80.6948657 L69.9175743,80.6948657 Z" id="CLIENTE" fill="#C2D403" fill-rule="nonzero"></path>
        </g>
    </g>
</svg>