<?xml version="1.0" encoding="UTF-8"?>
<svg width="87px" height="70px" viewBox="0 0 87 70" version="1.1" xmlns="http://www.w3.org/2000/svg" xmlns:xlink="http://www.w3.org/1999/xlink">
    <title>domicilio</title>
    <g id="Page-1" stroke="none" stroke-width="1" fill="none" fill-rule="evenodd">
        <g id="domicilio" transform="translate(0.748612, 1.008945)">
            <path d="M3.34455028,67.5805059 C5.63612091,67.5805059 7.28473288,67.184839 8.52119186,66.2451302 C9.90602591,65.2065046 10.6973597,63.5249204 10.6973597,61.5795583 C10.6973597,59.5187933 9.80710919,57.7547785 8.2244417,56.7326391 C7.00446885,55.9413054 5.4547736,55.6445552 3.60832819,55.6445552 L0.294618137,55.6445552 L0.294618137,67.5805059 L3.34455028,67.5805059 Z M3.52589759,65.7175743 L2.38835534,65.7175743 L2.38835534,57.5074867 L3.50941147,57.5074867 C4.81181493,57.5074867 6.01530167,57.6228896 6.95501049,58.2658482 C7.94417767,58.9417791 8.60362246,60.1122936 8.60362246,61.5960444 C8.60362246,63.0303368 7.99363603,64.1843652 7.07041333,64.8602961 C6.2131351,65.4867687 5.09207896,65.7175743 3.52589759,65.7175743 Z M18.0171968,67.7618532 C21.5287403,67.7618532 24.1665194,65.0911018 24.1665194,61.6125305 C24.1665194,58.1339593 21.5287403,55.4632079 18.0171968,55.4632079 C14.5056533,55.4632079 11.8678742,58.1339593 11.8678742,61.6125305 C11.8678742,65.0911018 14.5056533,67.7618532 18.0171968,67.7618532 Z M18.0171968,65.8494633 C15.6926539,65.8494633 13.9616114,63.9865318 13.9616114,61.6125305 C13.9616114,59.2385293 15.6926539,57.3755978 18.0171968,57.3755978 C20.3417397,57.3755978 22.0727822,59.2385293 22.0727822,61.6125305 C22.0727822,63.9865318 20.3417397,65.8494633 18.0171968,65.8494633 Z M28.0242714,67.5805059 L28.0242714,61.678475 C28.0242714,60.7717384 28.0242714,59.9144602 28.0077853,59.0901542 L28.0407576,59.0736681 C28.5353411,59.8320296 29.062897,60.573905 29.623425,61.3817249 L31.8655373,64.5800321 L34.1076496,61.3817249 C34.6681777,60.573905 35.1957335,59.8320296 35.6903171,59.0736681 L35.7232893,59.0901542 C35.7068032,59.9144602 35.7068032,60.7717384 35.7068032,61.678475 L35.7068032,67.5805059 L37.8005404,67.5805059 L37.8005404,55.6445552 L35.8057199,55.6445552 L31.9149957,61.2003775 L28.0242714,55.6445552 L25.9964787,55.6445552 L25.9964787,67.5805059 L28.0242714,67.5805059 Z M42.3342233,67.5805059 L42.3342233,55.6445552 L40.2404861,55.6445552 L40.2404861,67.5805059 L42.3342233,67.5805059 Z M50.5443109,67.7618532 C51.7642838,67.7618532 53.0502011,67.4815891 54.0393683,66.904575 L54.0393683,64.6954349 C53.0831733,65.4208242 51.9126589,65.8494633 50.6432276,65.8494633 C47.9889624,65.8494633 46.2579198,64.0030179 46.2579198,61.6125305 C46.2579198,59.1890709 48.0054485,57.3591117 50.5278248,57.3591117 C51.7642838,57.3591117 52.9842566,57.8042369 53.858021,58.4307094 L53.858021,56.2545416 C52.9183122,55.7599581 51.7477977,55.4632079 50.5278248,55.4632079 C46.7360173,55.4632079 44.1641826,58.2163899 44.1641826,61.6455028 C44.1641826,65.124074 46.8019618,67.7618532 50.5443109,67.7618532 Z M58.0784676,67.5805059 L58.0784676,55.6445552 L55.9847304,55.6445552 L55.9847304,67.5805059 L58.0784676,67.5805059 Z M68.0195978,67.5805059 L68.0195978,65.7175743 L62.5956644,65.7175743 L62.5956644,55.6445552 L60.5019272,55.6445552 L60.5019272,67.5805059 L68.0195978,67.5805059 Z M71.6795163,67.5805059 L71.6795163,55.6445552 L69.5857791,55.6445552 L69.5857791,67.5805059 L71.6795163,67.5805059 Z M79.6423122,67.7618532 C83.1538556,67.7618532 85.7916348,65.0911018 85.7916348,61.6125305 C85.7916348,58.1339593 83.1538556,55.4632079 79.6423122,55.4632079 C76.1307687,55.4632079 73.4929895,58.1339593 73.4929895,61.6125305 C73.4929895,65.0911018 76.1307687,67.7618532 79.6423122,67.7618532 Z M79.6423122,65.8494633 C77.3177693,65.8494633 75.5867267,63.9865318 75.5867267,61.6125305 C75.5867267,59.2385293 77.3177693,57.3755978 79.6423122,57.3755978 C81.966855,57.3755978 83.6978976,59.2385293 83.6978976,61.6125305 C83.6978976,63.9865318 81.966855,65.8494633 79.6423122,65.8494633 Z" id="DOMICILIO" fill="#01765B" fill-rule="nonzero"></path>
            <line x1="39.6607033" y1="8.35780382" x2="31.9025293" y2="8.35780382" id="Path" stroke="#01765B" stroke-width="0.740283775" stroke-linecap="round"></line>
            <polyline id="Path" stroke="#01765B" stroke-width="0.740283775" stroke-linecap="round" points="51.0721777 39.1573103 62.3096854 39.1573103 62.3096854 8.35780382 48.0037014 8.35780382"></polyline>
            <polyline id="Path" stroke="#01765B" stroke-width="0.740283775" stroke-linecap="round" points="27.4497224 3.52004935 60.7847008 3.52004935 62.3096854 8.35780382"></polyline>
            <line x1="47.9481801" y1="8.35780382" x2="47.9481801" y2="3.52004935" id="Path" stroke="#01765B" stroke-width="0.740283775" stroke-linecap="round" stroke-linejoin="round"></line>
            <polyline id="Path" stroke="#01765B" stroke-width="0.740283775" stroke-linecap="round" stroke-linejoin="round" points="39.6607033 3.52004935 39.8161629 18.0333128 43.802591 14.8093769 47.9444787 18.0333128 47.9444787 8.35780382"></polyline>
            <polyline id="Path" stroke="#01765B" stroke-width="0.740283775" stroke-linecap="round" stroke-linejoin="round" points="23.6890808 34.1640962 23.6890808 39.1573103 31.9025293 39.1573103"></polyline>
            <polyline id="Path" stroke="#01765B" stroke-width="0.740283775" stroke-linecap="round" stroke-linejoin="round" points="27.6607033 3.36088834 41.2856262 21.0758791 25.7063541 31.6138186 15.6236891 19.6471314"></polyline>
            <line x1="25.3028994" y1="0.292412091" x2="27.6607033" y2="3.36088834" id="Path" stroke="#01765B" stroke-width="0.740283775" stroke-linecap="round" stroke-linejoin="round"></line>
            <path d="M41.3744602,22.6859963 L43.5953115,23.407773 C44.1363414,23.5817202 44.7045185,23.6557212 45.2720543,23.6261567 L48.4700802,23.45219 C49.6306988,23.4142733 50.6089374,24.3106418 50.6723478,25.470147 C50.7357583,26.6296523 49.8611015,27.627351 48.7032696,27.7162246 L42.9771746,28.0271437 L44.3726095,29.8778532 L47.2634176,33.7569402 L49.7137569,37.0326959 C50.1949414,37.6804442 50.6761258,38.1431215 50.553979,38.6502159 C50.4318322,39.1573103 49.8136952,39.5015423 48.7735965,40.0530537 C48.5163863,40.2278093 48.2289787,40.3533148 47.9259716,40.4231956 C46.8747687,40.5231339 46.0308452,39.2239358 45.8864898,38.9944479 L45.1906231,38.0468846 C45.3407279,39.0022501 44.822077,39.9373471 43.9321407,40.3158544 C43.3854836,40.4787392 42.7954784,40.4034766 42.3072178,40.108575 C42.1040892,40.9541711 41.5564963,41.6762422 40.7970389,42.0999383 C40.174433,42.4196923 39.4602762,42.5138668 38.7760642,42.3664405 L37.4916718,40.6637878 C37.2217824,41.4057683 36.6753169,42.0145733 35.9666872,42.362739 C35.4657302,42.592146 34.9102068,42.6755386 34.3639729,42.6033313 L30.1332511,36.2331894 C29.4486994,35.201316 29.0525357,34.005157 28.9858112,32.7686613 L28.9154843,31.4361505" id="Path" stroke="#01765B" stroke-width="0.740283775" stroke-linecap="round" stroke-linejoin="round"></path>
            <line x1="35.7186922" y1="37.528686" x2="37.872918" y2="41.1523751" id="Path" stroke="#01765B" stroke-width="0.740283775" stroke-linecap="round" stroke-linejoin="round"></line>
            <line x1="38.8500925" y1="35.7446021" x2="42.3331277" y2="40.400987" id="Path" stroke="#01765B" stroke-width="0.740283775" stroke-linecap="round" stroke-linejoin="round"></line>
            <line x1="41.9814929" y1="33.9123998" x2="45.1943245" y2="38.0394818" id="Path" stroke="#01765B" stroke-width="0.740283775" stroke-linecap="round" stroke-linejoin="round"></line>
        </g>
    </g>
</svg>