<?xml version="1.0" encoding="UTF-8"?>
<svg width="104px" height="71px" viewBox="0 0 104 71" version="1.1" xmlns="http://www.w3.org/2000/svg" xmlns:xlink="http://www.w3.org/1999/xlink">
    <title>falabella.com</title>
    <g id="Page-1" stroke="none" stroke-width="1" fill="none" fill-rule="evenodd">
        <g id="falabella.com" transform="translate(0.858421, 0.983652)">
            <rect id="Rectangle" stroke="#FFFFFF" stroke-width="0.740283775" stroke-linecap="round" x="28.3639729" y="0.277606416" width="40.630475" height="26.4170265" rx="0.832819247"></rect>
            <polygon id="Path" stroke="#FFFFFF" stroke-width="0.740283775" stroke-linecap="round" points="33.534855 5.11536089 64.2492289 5.11536089 63.8457742 22.8562616 33.534855 22.8562616"></polygon>
            <path d="M20.8574954,35.7594078 L74.9278223,35.7594078 C75.0225013,35.7594078 75.1091778,35.7063003 75.1521433,35.6219317 C75.1951088,35.5375631 75.1870939,35.4362204 75.1314004,35.3596545 L68.9907465,26.6946329 L28.3602714,26.6946329 L20.668723,35.3411474 C20.6032276,35.4153471 20.5872957,35.521043 20.6280094,35.6112518 C20.6687232,35.7014607 20.7585245,35.7594078 20.8574954,35.7594078 L20.8574954,35.7594078 Z" id="Path" stroke="#FFFFFF" stroke-width="0.740283775" stroke-linecap="round"></path>
            <line x1="30.7402838" y1="31.2251696" x2="65.363356" y2="31.2251696" id="Path" stroke="#FFFFFF" stroke-width="0.740283775" stroke-linecap="round"></line>
            <g id="Group" transform="translate(0.296114, 55.976558)" fill="#FFFFFF" fill-rule="nonzero">
                <path d="M74.803351,4.66244787 C75.6441431,4.66244787 76.4189907,4.87676743 76.9960049,5.17351758 L76.9960049,5.17351758 L76.9960049,6.70672671 C76.320074,6.2780876 75.5287403,6.01430969 74.7374065,6.01430969 C72.9733917,6.01430969 71.8028772,7.31671314 71.8028772,8.94883899 C71.8028772,10.6139371 73.0393362,11.7844516 74.7868649,11.7844516 C75.7100876,11.7844516 76.5179075,11.4712153 77.1278939,10.9931178 L77.1278939,10.9931178 L77.1278939,12.5757853 C76.4354769,12.9549661 75.5287403,13.1363134 74.7044343,13.1363134 C72.1325996,13.1363134 70.3026403,11.3558125 70.3026403,8.94883899 C70.3026403,6.4429488 72.2809747,4.66244787 74.803351,4.66244787 Z M67.4035484,10.9601456 C67.9970487,10.9601456 68.4916323,11.4547292 68.4916323,12.0482295 C68.4916323,12.6417298 67.9970487,13.1363134 67.4035484,13.1363134 C66.8100481,13.1363134 66.3154645,12.6417298 66.3154645,12.0482295 C66.3154645,11.4547292 66.8100481,10.9601456 67.4035484,10.9601456 Z M11.3840543,4.66244787 C12.3732215,4.66244787 13.2304997,4.87676743 13.8075139,5.40432326 C14.2856114,5.83296237 14.6153337,6.5253794 14.6153337,7.5310327 L14.6153337,7.5310327 L14.6153337,10.9766317 C14.6153337,11.4712153 14.7966811,11.8339099 15.2418063,11.8339099 C15.4066675,11.8339099 15.5880148,11.7844516 15.7199038,11.7185071 L15.7199038,11.7185071 L15.7199038,12.9549661 C15.5220703,13.0373967 15.2418063,13.1033411 14.92857,13.1033411 C14.2856114,13.1033411 13.6756249,12.8230771 13.3623886,12.2460629 L13.3623886,12.2460629 L13.3294164,12.2460629 C12.8678051,12.674702 11.9280962,13.1363134 10.8400123,13.1363134 C10.1805676,13.1363134 9.45517829,12.9714522 8.91113634,12.5592992 C8.38358051,12.1636323 8.05385811,11.5536459 8.05385811,10.7623122 C8.05385811,9.85557557 8.48249722,9.19613078 9.12545589,8.78397779 C9.73544232,8.38831092 10.5597483,8.23993584 11.4005404,8.23993584 C12.027013,8.23993584 12.6040271,8.32236644 13.131583,8.4542554 L13.131583,8.4542554 L13.131583,7.77832449 C13.131583,7.18482418 12.9832079,6.73969895 12.6699716,6.4429488 C12.3567353,6.16268476 11.8621518,5.99782357 11.1697347,5.99782357 C10.1475953,5.99782357 9.29031709,6.3605182 8.68033066,6.80564343 L8.68033066,6.80564343 L8.68033066,5.3548649 C9.30680321,4.97568415 10.1805676,4.66244787 11.3840543,4.66244787 Z M60.2818853,4.66244787 C61.2710524,4.66244787 62.1283307,4.87676743 62.7053448,5.40432326 C63.1834423,5.83296237 63.5131647,6.5253794 63.5131647,7.5310327 L63.5131647,7.5310327 L63.5131647,10.9766317 C63.5131647,11.4712153 63.694512,11.8339099 64.1396373,11.8339099 C64.3044985,11.8339099 64.4858458,11.7844516 64.6177347,11.7185071 L64.6177347,11.7185071 L64.6177347,12.9549661 C64.4199013,13.0373967 64.1396373,13.1033411 63.826401,13.1033411 C63.1834423,13.1033411 62.5734559,12.8230771 62.2602196,12.2460629 L62.2602196,12.2460629 L62.2272474,12.2460629 C61.765636,12.674702 60.8259272,13.1363134 59.7378433,13.1363134 C59.0783985,13.1363134 58.3530093,12.9714522 57.8089673,12.5592992 C57.2814115,12.1636323 56.9516891,11.5536459 56.9516891,10.7623122 C56.9516891,9.85557557 57.3803282,9.19613078 58.0232869,8.78397779 C58.6332733,8.38831092 59.4575793,8.23993584 60.2983714,8.23993584 C60.9248439,8.23993584 61.5018581,8.32236644 62.0294139,8.4542554 L62.0294139,8.4542554 L62.0294139,7.77832449 C62.0294139,7.18482418 61.8810389,6.73969895 61.5678026,6.4429488 C61.2545663,6.16268476 60.7599827,5.99782357 60.0675657,5.99782357 C59.0454263,5.99782357 58.1881481,6.3605182 57.5781616,6.80564343 L57.5781616,6.80564343 L57.5781616,5.3548649 C58.2046342,4.97568415 59.0783985,4.66244787 60.2818853,4.66244787 Z M82.9653424,4.66244787 C85.4217742,4.66244787 87.2517335,6.50889328 87.2517335,8.89938063 C87.2517335,11.289868 85.4217742,13.1363134 82.9653424,13.1363134 C80.5089105,13.1363134 78.6789513,11.289868 78.6789513,8.89938063 C78.6789513,6.50889328 80.5089105,4.66244787 82.9653424,4.66244787 Z M43.5155015,4.66244787 C45.4938359,4.66244787 47.2083924,6.04728192 47.2083924,8.58614436 C47.2083924,8.83343615 47.1919062,9.1301863 47.158934,9.32801974 L47.158934,9.32801974 L40.960153,9.32801974 C41.1744725,10.9271733 42.3614732,11.8009377 43.9606268,11.8009377 C45.0816829,11.8009377 46.0213917,11.3558125 46.7632671,10.7952844 L46.7632671,10.7952844 L46.7632671,12.3779519 C46.0378779,12.8395632 44.9168217,13.1363134 43.8617101,13.1363134 C41.3558199,13.1363134 39.4764022,11.4547292 39.4764022,8.89938063 C39.4764022,6.34403208 41.3393337,4.66244787 43.5155015,4.66244787 Z M31.7114399,0.359570635 L31.7114399,5.30540654 L31.7444121,5.32189266 C32.2554818,4.99217027 33.0633017,4.66244787 34.0359827,4.66244787 C36.2286366,4.66244787 37.9926514,6.32754596 37.9926514,8.78397779 C37.9926514,11.289868 36.1791783,13.1363134 33.6897742,13.1363134 C32.9314127,13.1363134 32.2719679,12.9549661 31.6619815,12.7076743 L31.6619815,12.7076743 L30.2276891,12.9549661 L30.2276891,0.359570635 L31.7114399,0.359570635 Z M24.2432276,4.66244787 C25.2323948,4.66244787 26.089673,4.87676743 26.6666872,5.40432326 C27.1447847,5.83296237 27.4745071,6.5253794 27.4745071,7.5310327 L27.4745071,7.5310327 L27.4745071,10.9766317 C27.4745071,11.4712153 27.6558544,11.8339099 28.1009796,11.8339099 C28.2658408,11.8339099 28.4471882,11.7844516 28.5790771,11.7185071 L28.5790771,11.7185071 L28.5790771,12.9549661 C28.3812437,13.0373967 28.1009796,13.1033411 27.7877434,13.1033411 C27.1447847,13.1033411 26.5347983,12.8230771 26.221562,12.2460629 L26.221562,12.2460629 L26.1885898,12.2460629 C25.7269784,12.674702 24.7872696,13.1363134 23.6991857,13.1363134 C23.0397409,13.1363134 22.3143516,12.9714522 21.7703097,12.5592992 C21.2427539,12.1636323 20.9130315,11.5536459 20.9130315,10.7623122 C20.9130315,9.85557557 21.3416706,9.19613078 21.9846292,8.78397779 C22.5946157,8.38831092 23.4189217,8.23993584 24.2597138,8.23993584 C24.8861863,8.23993584 25.4632005,8.32236644 25.9907563,8.4542554 L25.9907563,8.4542554 L25.9907563,7.77832449 C25.9907563,7.18482418 25.8423812,6.73969895 25.529145,6.4429488 C25.2159087,6.16268476 24.7213251,5.99782357 24.0289081,5.99782357 C23.0067687,5.99782357 22.1494904,6.3605182 21.539504,6.80564343 L21.539504,6.80564343 L21.539504,5.3548649 C22.1659766,4.97568415 23.0397409,4.66244787 24.2432276,4.66244787 Z M99.1382258,4.66244787 C100.01199,4.66244787 100.770352,4.95919803 101.264935,5.5197261 C101.759519,6.06376804 101.940866,6.78915731 101.940866,7.89372733 L101.940866,7.89372733 L101.940866,12.9549661 L100.457115,12.9549661 L100.457115,8.15750524 C100.457115,7.38265762 100.341713,6.88807403 100.044962,6.54186552 C99.7317261,6.17917088 99.2371425,6.04728192 98.8085034,6.04728192 C97.8687946,6.04728192 96.8961135,6.65726835 96.3355854,7.31671314 C96.3520716,7.49806046 96.3520716,7.69589389 96.3520716,7.89372733 L96.3520716,7.89372733 L96.3520716,12.9549661 L94.8683208,12.9549661 L94.8683208,8.15750524 C94.8683208,7.2837409 94.7694041,6.88807403 94.48914,6.55835163 C94.1594176,6.17917088 93.7142924,6.04728192 93.2526811,6.04728192 C92.2964861,6.04728192 91.3402912,6.64078223 90.7797631,7.31671314 L90.7797631,7.31671314 L90.7797631,12.9549661 L89.2960123,12.9549661 L89.2960123,4.84379519 L90.7797631,4.84379519 L90.7797631,5.83296237 L90.8127353,5.84944849 C91.4886663,5.17351758 92.4448612,4.66244787 93.5659173,4.66244787 C94.5715706,4.66244787 95.5607378,5.09108698 96.0553214,6.06376804 C97.0280025,5.14054534 98.0171696,4.66244787 99.1382258,4.66244787 Z M54.8909241,0.359570635 L54.8909241,12.9549661 L53.4071733,12.9549661 L53.4071733,0.359570635 L54.8909241,0.359570635 Z M7.28100925,1.01901542 L7.28100925,2.43682171 L1.7911314,2.43682171 L1.7911314,6.29457372 L6.62156447,6.29457372 L6.62156447,7.66292165 L1.7911314,7.66292165 L1.7911314,12.9549661 L0.224950031,12.9549661 L0.224950031,1.01901542 L7.28100925,1.01901542 Z M18.8522665,0.359570635 L18.8522665,12.9549661 L17.3685157,12.9549661 L17.3685157,0.359570635 L18.8522665,0.359570635 Z M50.8023664,0.359570635 L50.8023664,12.9549661 L49.3186157,12.9549661 L49.3186157,0.359570635 L50.8023664,0.359570635 Z M33.8546354,5.99782357 C32.9808711,5.99782357 32.2554818,6.31105984 31.7114399,6.75618507 L31.7114399,6.75618507 L31.7114399,11.3063541 C32.2389957,11.6195904 33.0633017,11.8339099 33.7392326,11.8339099 C35.3878445,11.8339099 36.4924146,10.5644787 36.4924146,8.86640839 C36.4924146,7.23428254 35.453789,5.99782357 33.8546354,5.99782357 Z M60.4467465,9.3774781 C59.4410932,9.3774781 58.451926,9.67422825 58.451926,10.6304232 C58.451926,11.4217569 59.1278569,11.8174238 60.0016212,11.8174238 C60.7764688,11.8174238 61.5348304,11.5041875 62.0294139,11.1085207 L62.0294139,11.1085207 L62.0294139,9.59179766 C61.5842887,9.4599087 60.9578162,9.3774781 60.4467465,9.3774781 Z M24.4080888,9.3774781 C23.4024355,9.3774781 22.4132684,9.67422825 22.4132684,10.6304232 C22.4132684,11.4217569 23.0891993,11.8174238 23.9629636,11.8174238 C24.7378112,11.8174238 25.4961727,11.5041875 25.9907563,11.1085207 L25.9907563,11.1085207 L25.9907563,9.59179766 C25.5456311,9.4599087 24.9191585,9.3774781 24.4080888,9.3774781 Z M11.5489155,9.3774781 C10.5432622,9.3774781 9.554095,9.67422825 9.554095,10.6304232 C9.554095,11.4217569 10.2300259,11.8174238 11.1037903,11.8174238 C11.8786379,11.8174238 12.6369994,11.5041875 13.131583,11.1085207 L13.131583,11.1085207 L13.131583,9.59179766 C12.6864577,9.4599087 12.0599852,9.3774781 11.5489155,9.3774781 Z M82.9653424,6.01430969 C81.3497027,6.01430969 80.162702,7.26725478 80.162702,8.89938063 C80.162702,10.5315065 81.3497027,11.7844516 82.9653424,11.7844516 C84.5809821,11.7844516 85.7679827,10.5315065 85.7679827,8.89938063 C85.7679827,7.26725478 84.5809821,6.01430969 82.9653424,6.01430969 Z M43.4825293,5.99782357 C42.4109315,5.99782357 41.2569031,6.65726835 40.9931252,8.15750524 L40.9931252,8.15750524 L45.7740999,8.15750524 C45.642211,6.54186552 44.4552104,5.99782357 43.4825293,5.99782357 Z" id="Combined-Shape"></path>
            </g>
        </g>
    </g>
</svg>