<?xml version="1.0" encoding="UTF-8"?>
<svg width="545px" height="566px" viewBox="0 0 545 566" version="1.1" xmlns="http://www.w3.org/2000/svg" xmlns:xlink="http://www.w3.org/1999/xlink">
    <title>lineas_flechas</title>
    <g id="Page-1" stroke="none" stroke-width="1" fill="none" fill-rule="evenodd">
        <g id="lineas_flechas" transform="translate(0.514189, 0.416101)">
            <path d="M379.12153,539.526218 C342.661448,556.159871 303.046105,564.744458 262.971006,564.696072 C142.760025,564.70327 39.9716225,488.73905 0.0740283775,382.289944" id="Path" stroke="#FFFFFF" stroke-width="0.740283775" stroke-linecap="round" stroke-linejoin="round"></path>
            <path d="M378.840222,539.626157 C378.47008,540.65145 378.747687,542.194941 379.158544,543.175817 C379.503221,541.408194 380.316231,539.765556 381.512647,538.419494 C379.72116,538.497224 377.977791,537.838371 376.386181,537.042566 C376.937693,538.041949 377.759408,539.185688 378.840222,539.626157 Z" id="Path" fill="#FFFFFF" fill-rule="nonzero"></path>
            <path d="M265.606416,3.44972239 C419.141271,4.87106724 543.62382,130.223319 543.62382,284.069093 C543.683423,345.859888 523.245502,405.925245 485.511413,454.856262" id="Path" stroke="#FFFFFF" stroke-width="0.740283775" stroke-linecap="round" stroke-linejoin="round"></path>
            <path d="M265.902529,3.47563233 C266.68723,2.70943862 267.075879,1.18445404 267.120296,0.144355336 C266.058867,1.60478705 264.626318,2.75491571 262.971006,3.47563233 C264.629241,4.16409624 265.932141,5.49660703 267.042566,6.89204195 C266.957434,5.71499075 266.698334,4.33436151 265.902529,3.47563233 Z" id="Path" fill="#FFFFFF" fill-rule="nonzero"></path>
        </g>
    </g>
</svg>