<?xml version="1.0" encoding="UTF-8"?>
<svg width="99px" height="86px" viewBox="0 0 99 86" version="1.1" xmlns="http://www.w3.org/2000/svg" xmlns:xlink="http://www.w3.org/1999/xlink">
    <title>no_presencial</title>
    <g id="Page-1" stroke="none" stroke-width="1" fill="none" fill-rule="evenodd">
        <g id="no_presencial" transform="translate(0.870759, 1.219309)">
            <circle id="Oval" stroke="#01765B" stroke-width="0.740283775" stroke-linecap="round" cx="40.2862431" cy="22.6933991" r="3.22393584"></circle>
            <circle id="Oval" stroke="#01765B" stroke-width="0.740283775" stroke-linecap="round" cx="54.8032079" cy="29.1449722" r="3.22393584"></circle>
            <circle id="Oval" stroke="#01765B" stroke-width="0.740283775" stroke-linecap="round" cx="54.8032079" cy="13.0141888" r="3.22393584"></circle>
            <line x1="43.5101789" y1="21.0795805" x2="51.5755706" y2="14.4984577" id="Path" stroke="#01765B" stroke-width="0.740283775" stroke-linecap="round"></line>
            <line x1="44.1505244" y1="24.7217767" x2="51.5755706" y2="27.9827267" id="Path" stroke="#01765B" stroke-width="0.740283775" stroke-linecap="round"></line>
            <path d="M37.0586058,31.9247378 C29.5262184,33.0832819 23.5595312,29.9222702 22.541641,25.917335 C22.0308452,23.8963603 22.6971006,21.3423812 24.1554596,19.4657619 C26.5169648,16.4305984 30.0777298,16.2566317 30.6070327,16.241826 C30.5663171,15.7976558 30.2368908,11.248612 33.83467,8.1764343 C36.5275758,5.91517725 40.2473795,5.32177321 43.5101789,6.63294263 C45.9568168,2.39481801 50.3652067,-0.185070944 54.7995065,0.111042566 C60.7217767,0.510795805 65.9259716,5.98519432 66.0888341,13.0141888 C70.9006786,14.1838371 74.2023442,18.3516348 74.1542258,22.6933991 C74.0950031,27.9864281 69.0721777,32.7760642 62.8648982,32.3689081" id="Path" stroke="#01765B" stroke-width="0.740283775" stroke-linecap="round"></path>
            <path d="M2.31802838,82.8340531 L2.31802838,78.3498285 L3.3401678,78.3498285 C4.98877977,78.3498285 6.2746971,78.2179395 7.24737816,77.6409254 C8.23654534,77.047425 8.91247625,76.0087995 8.91247625,74.6074793 C8.91247625,73.1072424 8.13762862,72.085103 7.09900308,71.524575 C6.09334978,70.980533 4.84040469,70.8981024 3.55448735,70.8981024 L0.224291178,70.8981024 L0.224291178,82.8340531 L2.31802838,82.8340531 Z M3.64891879,76.6020476 L2.31802838,76.6022998 L2.31802838,72.7610339 L3.47205676,72.7610339 C4.49419618,72.7610339 5.25255768,72.77752 5.84605799,73.0742702 C6.45604442,73.3710204 6.81873905,73.8985762 6.81873905,74.6734238 C6.81873905,75.3988131 6.50550278,75.9098828 5.97794695,76.2231191 C5.43984,76.5396526 4.78018419,76.5978947 3.64891879,76.6020476 L3.64891879,76.6020476 Z M12.7207699,82.8340531 L12.7207699,77.9047033 L14.3199235,77.9047033 L17.6501197,82.8340531 L20.1065515,82.8340531 L16.5125774,77.6738976 C18.1941616,77.2617446 19.1668427,76.0087995 19.1668427,74.3931598 C19.1668427,72.9753535 18.4249673,72.0191585 17.4522862,71.4916027 C16.5125774,70.980533 15.3255768,70.8981024 14.1056039,70.8981024 L10.6270327,70.8981024 L10.6270327,82.8340531 L12.7207699,82.8340531 Z M14.385868,76.2890635 L12.7207699,76.2890635 L12.7207699,72.7610339 L13.9902011,72.7610339 C15.0288267,72.7610339 15.6882714,72.8104923 16.2158273,73.0907563 C16.7433831,73.3710204 17.0731055,73.8161456 17.0731055,74.5250487 C17.0731055,75.118549 16.8422998,75.530702 16.4631191,75.8109661 C15.9850216,76.1571746 15.3420629,76.2890635 14.385868,76.2890635 Z M28.6298754,82.8340531 L28.6298754,80.9711215 L23.4367477,80.9711215 L23.4367477,77.5090364 L27.8055694,77.5090364 L27.8055694,75.7285355 L23.4367477,75.7285355 L23.4367477,72.7610339 L28.4650142,72.7610339 L28.4650142,70.8981024 L21.3430105,70.8981024 L21.3430105,82.8340531 L28.6298754,82.8340531 Z M33.954892,83.0154004 C36.4442961,83.0154004 38.1093942,81.6635386 38.1093942,79.4214263 C38.1093942,77.4281045 36.8014045,76.6065235 35.2382578,76.0648721 L35.0495228,76.0011605 C34.9546103,75.9699195 34.8589309,75.9395578 34.7627119,75.9098828 C33.3284195,75.4647576 32.0754744,75.2998964 32.0754744,74.0469513 C32.0754744,73.041298 32.8668081,72.5961727 33.9878643,72.5961727 C34.9605453,72.5961727 36.3618655,72.9423812 37.5488661,73.7172289 L37.5488661,71.6070056 C36.5432128,71.0135052 35.1583788,70.7167551 34.0043504,70.7167551 C31.5808908,70.7167551 29.9817372,72.0191585 29.9817372,74.1953263 C29.9817372,76.2890635 31.4984602,77.047425 33.2130167,77.5749809 C34.7627119,78.0365922 36.015657,78.2179395 36.015657,79.5368291 C36.015657,80.624913 35.1748649,81.1359827 33.9713782,81.1359827 C32.982211,81.1359827 31.5149463,80.7732881 30.3279457,79.9489821 L30.3279457,82.141636 C31.3830574,82.7186502 32.7843775,83.0154004 33.954892,83.0154004 Z M47.17676,82.8340531 L47.17676,80.9711215 L41.9836323,80.9711215 L41.9836323,77.5090364 L46.352454,77.5090364 L46.352454,75.7285355 L41.9836323,75.7285355 L41.9836323,72.7610339 L47.0118988,72.7610339 L47.0118988,70.8981024 L39.8898951,70.8981024 L39.8898951,82.8340531 L47.17676,82.8340531 Z M51.0674843,82.8340531 L51.0674843,77.8222727 C51.0674843,76.5528415 51.0674843,75.3328686 51.034512,74.2118125 L51.0674843,74.1953263 C51.7599013,75.1515213 52.4523183,76.0912301 53.1941937,77.0803973 L57.5135571,82.8340531 L59.4918914,82.8340531 L59.4918914,70.8981024 L57.4640987,70.8981024 L57.4640987,75.9098828 C57.4640987,77.179314 57.4640987,78.3992869 57.4970709,79.520343 L57.4640987,79.5368291 C56.7716817,78.5806342 56.0792647,77.6409254 55.3373893,76.6517582 L51.0180259,70.8981024 L49.0396915,70.8981024 L49.0396915,82.8340531 L51.0674843,82.8340531 Z M67.701979,83.0154004 C68.9219519,83.0154004 70.2078692,82.7351363 71.1970364,82.1581221 L71.1970364,79.9489821 C70.2408415,80.6743714 69.070327,81.1030105 67.8008957,81.1030105 C65.1466305,81.1030105 63.4155879,79.2565651 63.4155879,76.8660777 C63.4155879,74.4426181 65.1631166,72.6126589 67.6854929,72.6126589 C68.9219519,72.6126589 70.1419247,73.0577841 71.0156891,73.6842566 L71.0156891,71.5080888 C70.0759803,71.0135052 68.9054658,70.7167551 67.6854929,70.7167551 C63.8936854,70.7167551 61.3218507,73.4699371 61.3218507,76.89905 C61.3218507,80.3776212 63.9596299,83.0154004 67.701979,83.0154004 Z M75.2361357,82.8340531 L75.2361357,70.8981024 L73.1423985,70.8981024 L73.1423985,82.8340531 L75.2361357,82.8340531 Z M78.6652486,82.8340531 L79.819277,79.9160099 L84.9629463,79.9160099 L86.1004886,82.8340531 L88.3261147,82.8340531 L83.4462233,70.8981024 L81.4019445,70.8981024 L76.5055669,82.8340531 L78.6652486,82.8340531 Z M84.2870154,78.2014534 L80.4952079,78.2014534 L81.1876249,76.4044664 C81.5997779,75.3328686 81.9789587,74.3107292 82.3746255,73.2061592 L82.4075978,73.2061592 C82.7867785,74.2777569 83.1824454,75.3328686 83.5945984,76.4044664 L84.2870154,78.2014534 Z M97.1297027,82.8340531 L97.1297027,80.9711215 L91.7057693,80.9711215 L91.7057693,70.8981024 L89.6120321,70.8981024 L89.6120321,82.8340531 L97.1297027,82.8340531 Z" id="PRESENCIAL" fill="#01765B" fill-rule="nonzero"></path>
            <path d="M38.2800148,58.6415793 L38.2800148,53.6297989 C38.2800148,52.3603677 38.2800148,51.1403948 38.2470426,50.0193387 L38.2800148,50.0028526 C38.9724318,50.9590475 39.6648489,51.8987563 40.4067242,52.8879235 L44.7260876,58.6415793 L46.704422,58.6415793 L46.704422,46.7056286 L44.6766292,46.7056286 L44.6766292,51.717409 C44.6766292,52.9868402 44.6766292,54.2068131 44.7096015,55.3278692 L44.6766292,55.3443553 C43.9842122,54.3881604 43.2917952,53.4484516 42.5499198,52.4592844 L38.2305564,46.7056286 L36.2522221,46.7056286 L36.2522221,58.6415793 L38.2800148,58.6415793 Z M54.6672178,58.8229266 C58.1787613,58.8229266 60.8165404,56.1521752 60.8165404,52.6736039 C60.8165404,49.1950327 58.1787613,46.5242813 54.6672178,46.5242813 C51.1556743,46.5242813 48.5178951,49.1950327 48.5178951,52.6736039 C48.5178951,56.1521752 51.1556743,58.8229266 54.6672178,58.8229266 Z M54.6672178,56.9105367 C52.3426749,56.9105367 50.6116323,55.0476052 50.6116323,52.6736039 C50.6116323,50.2996027 52.3426749,48.4366712 54.6672178,48.4366712 C56.9917606,48.4366712 58.7228032,50.2996027 58.7228032,52.6736039 C58.7228032,55.0476052 56.9917606,56.9105367 54.6672178,56.9105367 Z" id="NO" fill="#01765B" fill-rule="nonzero"></path>
        </g>
    </g>
</svg>