<?xml version="1.0" encoding="UTF-8"?>
<svg width="114px" height="57px" viewBox="0 0 114 57" version="1.1" xmlns="http://www.w3.org/2000/svg" xmlns:xlink="http://www.w3.org/1999/xlink">
    <title>RRSS</title>
    <g id="Page-1" stroke="none" stroke-width="1" fill="none" fill-rule="evenodd">
        <g id="RRSS" transform="translate(0.652992, 0.981184)">
            <g id="Group" transform="translate(0.103640, 41.700185)" fill="#FFFFFF" fill-rule="nonzero">
                <path d="M63.9265392,4.66244787 C66.382971,4.66244787 68.2129303,6.50889328 68.2129303,8.89938063 C68.2129303,11.289868 66.382971,13.1363134 63.9265392,13.1363134 C61.4701073,13.1363134 59.6401481,11.289868 59.6401481,8.89938063 C59.6401481,6.50889328 61.4701073,4.66244787 63.9265392,4.66244787 Z M54.265673,0.837668106 C55.3867292,0.837668106 56.738591,1.11793214 57.6947859,1.72791857 L57.6947859,1.72791857 L57.6947859,3.37653054 C56.606702,2.61816903 55.2548402,2.27196052 54.2327008,2.27196052 C52.8973251,2.27196052 51.9576163,2.84897471 51.9576163,4.06894756 C51.9576163,5.36722949 53.0178799,5.71884751 54.254854,6.06257666 L54.254854,6.06257666 L54.4326713,6.11172853 L54.6123204,6.16138128 C54.6724451,6.17808326 54.7327798,6.19497008 54.7932289,6.21214312 C56.5242714,6.70672671 58.2388279,7.39914374 58.2388279,9.67422825 C58.2388279,11.8503961 56.6396743,13.1363134 54.2491869,13.1363134 C53.0951585,13.1363134 51.7268106,12.8230771 50.7046712,12.2295768 L50.7046712,12.2295768 L50.7046712,10.5150204 C51.8092412,11.3393263 53.2105614,11.702021 54.265673,11.702021 C55.6834793,11.702021 56.6891326,11.0590623 56.6891326,9.75665885 C56.6891326,8.22344972 55.2878125,7.95967181 53.7216311,7.51454658 C52.0400469,7.03644911 50.407921,6.34403208 50.407921,4.16786428 C50.407921,2.05764096 51.9411302,0.837668106 54.265673,0.837668106 Z M74.1973917,4.66244787 C75.0381838,4.66244787 75.8130315,4.87676743 76.3900457,5.17351758 L76.3900457,5.17351758 L76.3900457,6.70672671 C75.7141147,6.2780876 74.922781,6.01430969 74.1314473,6.01430969 C72.3674324,6.01430969 71.196918,7.31671314 71.196918,8.94883899 C71.196918,10.6139371 72.4333769,11.7844516 74.1809056,11.7844516 C75.1041283,11.7844516 75.9119482,11.4712153 76.5219346,10.9931178 L76.5219346,10.9931178 L76.5219346,12.5757853 C75.8295176,12.9549661 74.922781,13.1363134 74.098475,13.1363134 C71.5266403,13.1363134 69.6966811,11.3558125 69.6966811,8.94883899 C69.6966811,6.4429488 71.6750154,4.66244787 74.1973917,4.66244787 Z M41.587847,4.66244787 C42.5605281,4.66244787 43.6815842,4.87676743 44.4894041,5.30540654 L44.4894041,5.30540654 L44.4894041,6.78915731 C43.5826675,6.26160148 42.4616114,5.99782357 41.5219025,5.99782357 C40.483277,5.99782357 39.7578877,6.31105984 39.7578877,7.03644911 C39.7578877,7.95967181 40.9119161,7.95967181 42.1154028,8.17399136 C43.6650981,8.43776928 44.9510154,8.86640839 44.9510154,10.5479926 C44.9510154,12.4274102 43.2694312,13.1363134 41.5383886,13.1363134 C40.4997631,13.1363134 39.3622209,12.9219938 38.5214287,12.4933547 L38.5214287,12.4933547 L38.5214287,10.9436595 C39.4446514,11.5206737 40.5986798,11.8009377 41.6043331,11.8009377 C42.7253893,11.8009377 43.4507785,11.4712153 43.4507785,10.6798816 C43.4507785,9.70720049 42.280264,9.69071437 41.0273189,9.47639482 C39.4776237,9.2126169 38.2576508,8.75100555 38.2576508,7.15185194 C38.274137,5.47026774 39.7084294,4.66244787 41.587847,4.66244787 Z M107.746645,4.66244787 C108.719326,4.66244787 109.840382,4.87676743 110.648202,5.30540654 L110.648202,5.30540654 L110.648202,6.78915731 C109.741466,6.26160148 108.62041,5.99782357 107.680701,5.99782357 C106.642075,5.99782357 105.916686,6.31105984 105.916686,7.03644911 C105.916686,7.95967181 107.070714,7.95967181 108.274201,8.17399136 C109.823896,8.43776928 111.109814,8.86640839 111.109814,10.5479926 C111.109814,12.4274102 109.428229,13.1363134 107.697187,13.1363134 C106.658561,13.1363134 105.521019,12.9219938 104.680227,12.4933547 L104.680227,12.4933547 L104.680227,10.9436595 C105.60345,11.5206737 106.757478,11.8009377 107.763131,11.8009377 C108.884188,11.8009377 109.609577,11.4712153 109.609577,10.6798816 C109.609577,9.70720049 108.439062,9.69071437 107.186117,9.47639482 C105.636422,9.2126169 104.416449,8.75100555 104.416449,7.15185194 C104.432935,5.47026774 105.867228,4.66244787 107.746645,4.66244787 Z M85.5398421,4.66244787 C86.5290093,4.66244787 87.3862875,4.87676743 87.9633017,5.40432326 C88.4413991,5.83296237 88.7711215,6.5253794 88.7711215,7.5310327 L88.7711215,7.5310327 L88.7711215,10.9766317 C88.7711215,11.4712153 88.9524688,11.8339099 89.3975941,11.8339099 C89.5624553,11.8339099 89.7438026,11.7844516 89.8756915,11.7185071 L89.8756915,11.7185071 L89.8756915,12.9549661 C89.6778581,13.0373967 89.3975941,13.1033411 89.0843578,13.1033411 C88.4413991,13.1033411 87.8314127,12.8230771 87.5181764,12.2460629 L87.5181764,12.2460629 L87.4852042,12.2460629 C87.0235928,12.674702 86.083884,13.1363134 84.9958001,13.1363134 C84.3363553,13.1363134 83.6109661,12.9714522 83.0669241,12.5592992 C82.5393683,12.1636323 82.2096459,11.5536459 82.2096459,10.7623122 C82.2096459,9.85557557 82.638285,9.19613078 83.2812437,8.78397779 C83.8912301,8.38831092 84.7155361,8.23993584 85.5563282,8.23993584 C86.1828007,8.23993584 86.7598149,8.32236644 87.2873708,8.4542554 L87.2873708,8.4542554 L87.2873708,7.77832449 C87.2873708,7.18482418 87.1389957,6.73969895 86.8257594,6.4429488 C86.5125231,6.16268476 86.0179395,5.99782357 85.3255225,5.99782357 C84.3033831,5.99782357 83.4461049,6.3605182 82.8361184,6.80564343 L82.8361184,6.80564343 L82.8361184,5.3548649 C83.462591,4.97568415 84.3363553,4.66244787 85.5398421,4.66244787 Z M13.8087353,4.66244787 C15.7870697,4.66244787 17.5016262,6.04728192 17.5016262,8.58614436 C17.5016262,8.83343615 17.48514,9.1301863 17.4521678,9.32801974 L17.4521678,9.32801974 L11.2533868,9.32801974 C11.4677064,10.9271733 12.654707,11.8009377 14.2538606,11.8009377 C15.3749167,11.8009377 16.3146255,11.3558125 17.0565009,10.7952844 L17.0565009,10.7952844 L17.0565009,12.3779519 C16.3311117,12.8395632 15.2100555,13.1363134 14.1549439,13.1363134 C11.6490537,13.1363134 9.76963603,11.4547292 9.76963603,8.89938063 C9.76963603,6.34403208 11.6325676,4.66244787 13.8087353,4.66244787 Z M32.9326342,4.66244787 C34.9109685,4.66244787 36.625525,6.04728192 36.625525,8.58614436 C36.625525,8.83343615 36.6090389,9.1301863 36.5760666,9.32801974 L36.5760666,9.32801974 L30.3772856,9.32801974 C30.5916052,10.9271733 31.7786058,11.8009377 33.3777594,11.8009377 C34.4988155,11.8009377 35.4385244,11.3558125 36.1803998,10.7952844 L36.1803998,10.7952844 L36.1803998,12.3779519 C35.4550105,12.8395632 34.3339543,13.1363134 33.2788427,13.1363134 C30.7729525,13.1363134 28.8935349,11.4547292 28.8935349,8.89938063 C28.8935349,6.34403208 30.7564664,4.66244787 32.9326342,4.66244787 Z M99.0914324,4.66244787 C101.069767,4.66244787 102.784323,6.04728192 102.784323,8.58614436 C102.784323,8.83343615 102.767837,9.1301863 102.734865,9.32801974 L102.734865,9.32801974 L96.5360839,9.32801974 C96.7504035,10.9271733 97.9374041,11.8009377 99.5365577,11.8009377 C100.657614,11.8009377 101.597323,11.3558125 102.339198,10.7952844 L102.339198,10.7952844 L102.339198,12.3779519 C101.613809,12.8395632 100.492753,13.1363134 99.437641,13.1363134 C96.9317508,13.1363134 95.0523331,11.4547292 95.0523331,8.89938063 C95.0523331,6.34403208 96.9152647,4.66244787 99.0914324,4.66244787 Z M26.849256,0.359570635 L26.849256,12.9549661 L25.3655052,12.9549661 L25.3655052,12.4603825 L25.332533,12.4438964 C24.7884911,12.8230771 24.0301295,13.1363134 23.0574485,13.1363134 C20.8647946,13.1363134 19.0842936,11.5371598 19.0842936,9.03126959 C19.0842936,6.54186552 20.8318223,4.66244787 23.3871709,4.66244787 C24.1949907,4.66244787 24.8049772,4.86028131 25.332533,5.09108698 L25.332533,5.09108698 L25.3655052,5.07460086 L25.3655052,0.359570635 L26.849256,0.359570635 Z M93.0080543,0.359570635 L93.0080543,12.9549661 L91.5243035,12.9549661 L91.5243035,0.359570635 L93.0080543,0.359570635 Z M80.1488809,4.84379519 L80.1488809,12.9549661 L78.6651302,12.9549661 L78.6651302,4.84379519 L80.1488809,4.84379519 Z M3.6129147,1.01933249 C4.75972371,1.02425109 5.85603508,1.09212778 6.78642566,1.61251573 C7.77559284,2.15655768 8.43503763,3.07978038 8.43503763,4.39866996 C8.43503763,5.68458729 7.80856508,6.65726835 6.9018285,7.2013103 C6.47318939,7.46508822 6.02806416,7.61346329 5.53348057,7.69589389 L5.53348057,7.69589389 L9.35826033,12.9549661 L7.46235657,12.9549661 L3.81892412,7.84426897 L1.7911314,7.84426897 L1.7911314,12.9549661 L0.224950031,12.9549661 L0.224950031,1.01901542 Z M85.7047033,9.3774781 C84.69905,9.3774781 83.7098828,9.67422825 83.7098828,10.6304232 C83.7098828,11.4217569 84.3858137,11.8174238 85.259578,11.8174238 C86.0344257,11.8174238 86.7927872,11.5041875 87.2873708,11.1085207 L87.2873708,11.1085207 L87.2873708,9.59179766 C86.8422455,9.4599087 86.215773,9.3774781 85.7047033,9.3774781 Z M23.3706848,5.98133745 C21.6561283,5.98133745 20.5845305,7.2837409 20.5845305,8.94883899 C20.5845305,10.5644787 21.5901838,11.8174238 23.2552819,11.8174238 C24.0631018,11.8174238 24.7884911,11.5206737 25.3655052,11.1250068 L25.3655052,11.1250068 L25.3655052,6.49240716 C24.8214633,6.21214312 24.096074,5.98133745 23.3706848,5.98133745 Z M63.9265392,6.01430969 C62.3108994,6.01430969 61.1238988,7.26725478 61.1238988,8.89938063 C61.1238988,10.5315065 62.3108994,11.7844516 63.9265392,11.7844516 C65.5421789,11.7844516 66.7291795,10.5315065 66.7291795,8.89938063 C66.7291795,7.26725478 65.5421789,6.01430969 63.9265392,6.01430969 Z M32.8996619,5.99782357 C31.8280642,5.99782357 30.6740358,6.65726835 30.4102579,8.15750524 L30.4102579,8.15750524 L35.1912326,8.15750524 C35.0593436,6.54186552 33.872343,5.99782357 32.8996619,5.99782357 Z M13.7757631,5.99782357 C12.7041653,5.99782357 11.550137,6.65726835 11.286359,8.15750524 L11.286359,8.15750524 L16.0673337,8.15750524 C15.9354448,6.54186552 14.7484442,5.99782357 13.7757631,5.99782357 Z M99.0584602,5.99782357 C97.9868624,5.99782357 96.8328341,6.65726835 96.5690561,8.15750524 L96.5690561,8.15750524 L101.350031,8.15750524 C101.218142,6.54186552 100.031141,5.99782357 99.0584602,5.99782357 Z M3.34082665,2.43682171 L1.7911314,2.43682171 L1.7911314,6.55835163 L3.81892412,6.55835163 C4.87403578,6.55835163 5.61591117,6.42646268 6.15995312,6.01430969 C6.60507835,5.68458729 6.86885626,5.1900037 6.86885626,4.53055891 C6.86885626,3.77219741 6.52264775,3.1786971 5.8961752,2.83248859 C5.25321653,2.48628007 4.49485503,2.43682171 3.34082665,2.43682171 L3.34082665,2.43682171 Z M79.4070056,1.01901542 C79.9840197,1.01901542 80.4456311,1.48062677 80.4456311,2.05764096 C80.4456311,2.63465515 79.9840197,3.0962665 79.4070056,3.0962665 C78.8299914,3.0962665 78.36838,2.63465515 78.36838,2.05764096 C78.36838,1.48062677 78.8299914,1.01901542 79.4070056,1.01901542 Z" id="Combined-Shape"></path>
            </g>
            <circle id="Oval" stroke="#FFFFFF" stroke-width="0.740283775" stroke-linecap="round" cx="89.0117212" cy="13.3140037" r="13.0326959"></circle>
            <path d="M96.2109809,8.85009254 C95.7514729,9.0461807 95.26888,9.18299829 94.7748304,9.25724861 C95.0043183,9.22023442 95.3448489,8.80197409 95.4818014,8.63170882 C95.6933636,8.37377331 95.8552614,8.07884309 95.9592844,7.76187539 C95.9592844,7.73596545 95.9777915,7.7063541 95.9592844,7.68784701 C95.9350465,7.67468286 95.9057924,7.67468286 95.8815546,7.68784701 C95.3422316,7.97260084 94.7705599,8.19132739 94.1789019,8.33929673 C94.1363146,8.35308079 94.0896151,8.33994656 94.0604565,8.30598396 C94.0149008,8.25182816 93.9654144,8.20110462 93.9123998,8.15422579 C93.6666968,7.94234167 93.387842,7.77227778 93.0869833,7.65083282 C92.68596,7.48770992 92.253045,7.41808909 91.8210981,7.44725478 C91.4011662,7.47532947 90.9915893,7.59001101 90.618137,7.7840839 C90.2456253,7.9813091 89.9159918,8.25055171 89.6483652,8.57618754 C89.372804,8.91505786 89.1756192,9.31069139 89.0709439,9.73473165 C88.9796906,10.137088 88.9696237,10.5536063 89.0413325,10.9599013 C89.0413325,11.0265268 89.0413325,11.0376311 88.9821098,11.0265268 C86.6391117,10.6785935 84.6995682,9.84207279 83.1264651,8.06539173 C83.0561382,7.98766194 83.019124,7.98766194 82.9636027,8.06539173 C82.2751388,9.0980876 82.5934608,10.7563233 83.4706971,11.5706354 C83.5854411,11.681678 83.7038865,11.7890191 83.840839,11.8889574 C83.4532304,11.857646 83.0757426,11.7494328 82.7304133,11.5706354 C82.6600864,11.5299198 82.6267736,11.5706354 82.6230722,11.6298581 C82.6102592,11.7417689 82.6102592,11.8547764 82.6230722,11.9666872 C82.7622149,13.0406086 83.4696575,13.9560394 84.4737816,14.3615052 C84.5930052,14.4120608 84.7170093,14.450502 84.8439235,14.4762492 C84.4781536,14.5485333 84.1029431,14.5597896 83.7334978,14.509562 C83.655768,14.509562 83.6224553,14.5354719 83.655768,14.6132017 C84.1406539,15.9420111 85.1955583,16.3380629 85.9839605,16.5638495 C86.0894694,16.5719542 86.1944849,16.5855445 86.2985811,16.6045651 C86.2985811,16.6045651 86.2985811,16.6045651 86.2985811,16.6045651 C86.0394818,17.0043183 85.1326342,17.3004318 84.7106724,17.4484886 C83.9364464,17.7234425 83.1120382,17.8282294 82.2936459,17.7557064 C82.1640962,17.7557064 82.1381863,17.7557064 82.1011721,17.7557064 C82.0641579,17.7557064 82.1011721,17.8112276 82.1381863,17.8445404 C82.3047502,17.9518816 82.471314,18.0481184 82.6415793,18.1406539 C83.1543676,18.4146039 83.6955072,18.6318045 84.2553979,18.7884022 C87.1573103,19.5879087 90.4256632,18.9993831 92.6057989,16.8377545 C94.3158544,15.1351018 94.9154843,12.7921036 94.9154843,10.4454041 C94.9154843,10.3528686 95.0228254,10.3010487 95.089451,10.2529303 C95.5236842,9.91675617 95.9065012,9.51897559 96.2257866,9.07217767 C96.2746059,9.0070964 96.3006231,8.9277437 96.2998332,8.84639112 L96.2998332,8.84639112 C96.2702036,8.81677977 96.2702036,8.81677977 96.2109809,8.85009254 Z" id="Path" fill="#FFFFFF" fill-rule="nonzero"></path>
            <circle id="Oval" stroke="#FFFFFF" stroke-width="0.740283775" stroke-linecap="round" cx="55.1437384" cy="13.4287477" r="13.0326959"></circle>
            <path d="M59.1856878,8.49845774 C58.6909824,8.49845774 58.2899445,8.89949571 58.2899445,9.39420111 C58.2899445,9.88890651 58.6909824,10.2899445 59.1856878,10.2899445 C59.6803932,10.2899445 60.0814312,9.88890651 60.0814312,9.39420111 C60.0814312,9.1566352 59.9870585,8.92879937 59.8190741,8.7608149 C59.6510896,8.59283043 59.4232538,8.49845774 59.1856878,8.49845774 Z" id="Path" fill="#FFFFFF" fill-rule="nonzero"></path>
            <path d="M55.2029611,9.64589759 C53.1239719,9.64589759 51.4386181,11.3312514 51.4386181,13.4102406 C51.4386181,15.4892298 53.1239719,17.1745836 55.2029611,17.1745836 C57.2819504,17.1745836 58.9673041,15.4892298 58.9673041,13.4102406 C58.9652637,11.3320971 57.2811046,9.64793799 55.2029611,9.64589759 Z M55.2029611,15.8198643 C53.8726465,15.8178208 52.7956783,14.7380923 52.7970388,13.4077768 C52.7984019,12.0774612 53.8775784,10.9999399 55.2078945,11.0006197 C56.5382105,11.0013002 57.6162862,12.0799244 57.6162862,13.4102406 C57.6142442,14.7416375 56.5343596,15.8198643 55.2029611,15.8198643 L55.2029611,15.8198643 Z" id="Shape" fill="#FFFFFF" fill-rule="nonzero"></path>
            <path d="M58.1937076,21.0499692 L52.0752622,21.0499692 C49.5426996,21.0458885 47.4912417,18.9927748 47.4892042,16.4602097 L47.4892042,10.3602714 C47.4912417,7.82770638 49.5426996,5.7745927 52.0752622,5.77051203 L58.1789019,5.77051203 C60.7120658,5.77458792 62.7645854,7.82710752 62.7686613,10.3602714 L62.7686613,16.4602097 C62.7646209,18.987616 60.7210876,21.0377627 58.1937076,21.0499692 Z M52.0752622,7.20666255 C50.3350178,7.2087051 48.9253547,8.62002581 48.9253547,10.3602714 L48.9253547,16.4602097 C48.9253547,18.2004554 50.3350178,19.6117761 52.0752622,19.6138186 L58.1789019,19.6138186 C59.9191463,19.6117761 61.3288094,18.2004554 61.3288094,16.4602097 L61.3288094,10.3602714 C61.3288094,8.62002581 59.9191463,7.2087051 58.1789019,7.20666255 L52.0752622,7.20666255 Z" id="Shape" fill="#FFFFFF" fill-rule="nonzero"></path>
            <path d="M26.3466996,17.3078347 L26.9241209,13.5434917 L23.3078347,13.5434917 L23.3078347,11.0968538 C23.3078347,10.0678593 23.8149291,9.06107341 25.4324491,9.06107341 L27.0758791,9.06107341 L27.0758791,5.85564466 C26.1111908,5.69932186 25.1363367,5.61396026 24.159161,5.60024676 C21.1980259,5.60024676 19.2362739,7.40653917 19.2362739,10.6711906 L19.2362739,13.5434917 L15.9272054,13.5434917 L15.9272054,17.3078347 L19.2362739,17.3078347 L19.2362739,26.4170265 C20.5855457,26.624317 21.9585629,26.624317 23.3078347,26.4170265 L23.3078347,17.3078347 L26.3466996,17.3078347 Z" id="Path" fill="#FFFFFF" fill-rule="nonzero"></path>
            <circle id="Oval" stroke="#FFFFFF" stroke-width="0.740283775" stroke-linecap="round" cx="21.8938927" cy="13.8285009" r="13.0326959"></circle>
        </g>
    </g>
</svg>