<?xml version="1.0" encoding="UTF-8"?>
<svg width="129px" height="72px" viewBox="0 0 129 72" version="1.1" xmlns="http://www.w3.org/2000/svg" xmlns:xlink="http://www.w3.org/1999/xlink">
    <title>telefonicamente</title>
    <g id="Page-1" stroke="none" stroke-width="1" fill="none" fill-rule="evenodd">
        <g id="telefonicamente" transform="translate(0.208822, 0.702961)">
            <rect id="Rectangle" stroke="#FFFFFF" stroke-width="0.740283775" stroke-linecap="round" x="44.0838988" y="16.5194324" width="6.4515731" height="14.5169648" rx="0.444170265"></rect>
            <rect id="Rectangle" stroke="#FFFFFF" stroke-width="0.740283775" stroke-linecap="round" x="81.1795188" y="16.5194324" width="6.4515731" height="14.5169648" rx="0.444170265"></rect>
            <path d="M84.4034547,14.3689081 C82.0567551,6.80690932 75.6977175,1.29919803 68.2763726,0.392350401 C59.3337446,-0.718075262 50.3652067,5.06724244 47.3078347,14.3689081" id="Path" stroke="#FFFFFF" stroke-width="0.740283775" stroke-linecap="round"></path>
            <path d="M73.1141271,37.484269 C73.1141271,37.484269 82.7933374,39.0980876 84.4034547,32.6465145" id="Path" stroke="#FFFFFF" stroke-width="0.740283775" stroke-linecap="round"></path>
            <rect id="Rectangle" stroke="#FFFFFF" stroke-width="0.740283775" stroke-linecap="round" x="63.4386181" y="35.8704503" width="9.67550895" height="4.83775447" rx="0.555212832"></rect>
            <g id="Group" transform="translate(0.281308, 56.139420)" fill="#FFFFFF" fill-rule="nonzero">
                <path d="M115.580424,2.38736336 L115.580424,4.84379519 L118.02037,4.84379519 L118.02037,6.17917088 L115.580424,6.17917088 L115.580424,9.85557557 C115.580424,10.8612289 115.7288,11.7844516 116.800397,11.7844516 C117.229036,11.7844516 117.707134,11.6360765 118.02037,11.4382431 L118.02037,11.4382431 L118.02037,12.8395632 C117.690648,13.0044244 117.113634,13.1363134 116.553105,13.1363134 C115.959605,13.1363134 115.234216,12.9879383 114.70666,12.3779519 C114.310993,11.9328267 114.096674,11.2733819 114.096674,10.1358396 L114.096674,10.1358396 L114.096674,6.17917088 L112.596437,6.17917088 L112.596437,4.84379519 L114.096674,4.84379519 L114.096674,2.63465515 L115.580424,2.38736336 Z M13.3682665,4.66244787 C15.3466009,4.66244787 17.0611573,6.04728192 17.0611573,8.58614436 C17.0611573,8.83343615 17.0446712,9.1301863 17.011699,9.32801974 L17.011699,9.32801974 L10.812918,9.32801974 C11.0272375,10.9271733 12.2142381,11.8009377 13.8133917,11.8009377 C14.9344479,11.8009377 15.8741567,11.3558125 16.6160321,10.7952844 L16.6160321,10.7952844 L16.6160321,12.3779519 C15.8906428,12.8395632 14.7695867,13.1363134 13.714475,13.1363134 C11.2085848,13.1363134 9.32916718,11.4547292 9.32916718,8.89938063 C9.32916718,6.34403208 11.1920987,4.66244787 13.3682665,4.66244787 Z M26.7385096,4.66244787 C28.7168439,4.66244787 30.4314004,6.04728192 30.4314004,8.58614436 C30.4314004,8.83343615 30.4149143,9.1301863 30.381942,9.32801974 L30.381942,9.32801974 L24.183161,9.32801974 C24.3974806,10.9271733 25.5844812,11.8009377 27.1836348,11.8009377 C28.3046909,11.8009377 29.2443998,11.3558125 29.9862751,10.7952844 L29.9862751,10.7952844 L29.9862751,12.3779519 C29.2608859,12.8395632 28.1398297,13.1363134 27.0847181,13.1363134 C24.5788279,13.1363134 22.6994102,11.4547292 22.6994102,8.89938063 C22.6994102,6.34403208 24.5623418,4.66244787 26.7385096,4.66244787 Z M41.8573843,4.66244787 C44.3138162,4.66244787 46.1437754,6.50889328 46.1437754,8.89938063 C46.1437754,11.289868 44.3138162,13.1363134 41.8573843,13.1363134 C39.4009525,13.1363134 37.5709932,11.289868 37.5709932,8.89938063 C37.5709932,6.50889328 39.4009525,4.66244787 41.8573843,4.66244787 Z M123.163455,4.66244787 C125.141789,4.66244787 126.856345,6.04728192 126.856345,8.58614436 C126.856345,8.83343615 126.839859,9.1301863 126.806887,9.32801974 L126.806887,9.32801974 L120.608106,9.32801974 C120.822426,10.9271733 122.009426,11.8009377 123.60858,11.8009377 C124.729636,11.8009377 125.669345,11.3558125 126.41122,10.7952844 L126.41122,10.7952844 L126.41122,12.3779519 C125.685831,12.8395632 124.564775,13.1363134 123.509663,13.1363134 C121.003773,13.1363134 119.124355,11.4547292 119.124355,8.89938063 C119.124355,6.34403208 120.987287,4.66244787 123.163455,4.66244787 Z M65.9765774,4.66244787 C66.8173695,4.66244787 67.5922171,4.87676743 68.1692313,5.17351758 L68.1692313,5.17351758 L68.1692313,6.70672671 C67.4933004,6.2780876 66.7019667,6.01430969 65.9106329,6.01430969 C64.1466181,6.01430969 62.9761036,7.31671314 62.9761036,8.94883899 C62.9761036,10.6139371 64.2125626,11.7844516 65.9600913,11.7844516 C66.883314,11.7844516 67.6911339,11.4712153 68.3011203,10.9931178 L68.3011203,10.9931178 L68.3011203,12.5757853 C67.6087033,12.9549661 66.7019667,13.1363134 65.8776607,13.1363134 C63.305826,13.1363134 61.4758667,11.3558125 61.4758667,8.94883899 C61.4758667,6.4429488 63.4542011,4.66244787 65.9765774,4.66244787 Z M73.2304701,4.66244787 C74.2196373,4.66244787 75.0769155,4.87676743 75.6539297,5.40432326 C76.1320271,5.83296237 76.4617495,6.5253794 76.4617495,7.5310327 L76.4617495,7.5310327 L76.4617495,10.9766317 C76.4617495,11.4712153 76.6430969,11.8339099 77.0882221,11.8339099 C77.2530833,11.8339099 77.4344306,11.7844516 77.5663196,11.7185071 L77.5663196,11.7185071 L77.5663196,12.9549661 C77.3684861,13.0373967 77.0882221,13.1033411 76.7749858,13.1033411 C76.1320271,13.1033411 75.5220407,12.8230771 75.2088044,12.2460629 L75.2088044,12.2460629 L75.1758322,12.2460629 C74.7142209,12.674702 73.774512,13.1363134 72.6864281,13.1363134 C72.0269833,13.1363134 71.3015941,12.9714522 70.7575521,12.5592992 C70.2299963,12.1636323 69.9002739,11.5536459 69.9002739,10.7623122 C69.9002739,9.85557557 70.328913,9.19613078 70.9718717,8.78397779 C71.5818581,8.38831092 72.4061641,8.23993584 73.2469562,8.23993584 C73.8734287,8.23993584 74.4504429,8.32236644 74.9779988,8.4542554 L74.9779988,8.4542554 L74.9779988,7.77832449 C74.9779988,7.18482418 74.8296237,6.73969895 74.5163874,6.4429488 C74.2031511,6.16268476 73.7085676,5.99782357 73.0161505,5.99782357 C71.9940111,5.99782357 71.1367329,6.3605182 70.5267465,6.80564343 L70.5267465,6.80564343 L70.5267465,5.3548649 C71.153219,4.97568415 72.0269833,4.66244787 73.2304701,4.66244787 Z M97.9101912,4.66244787 C99.8885256,4.66244787 101.603082,6.04728192 101.603082,8.58614436 C101.603082,8.83343615 101.586596,9.1301863 101.553624,9.32801974 L101.553624,9.32801974 L95.3548427,9.32801974 C95.5691622,10.9271733 96.7561629,11.8009377 98.3553165,11.8009377 C99.4763726,11.8009377 100.416081,11.3558125 101.157957,10.7952844 L101.157957,10.7952844 L101.157957,12.3779519 C100.432568,12.8395632 99.3115114,13.1363134 98.2563998,13.1363134 C95.7505096,13.1363134 93.8710919,11.4547292 93.8710919,8.89938063 C93.8710919,6.34403208 95.7340234,4.66244787 97.9101912,4.66244787 Z M89.057145,4.66244787 C89.9309093,4.66244787 90.6892708,4.95919803 91.1838544,5.5197261 C91.678438,6.06376804 91.8597853,6.78915731 91.8597853,7.89372733 L91.8597853,7.89372733 L91.8597853,12.9549661 L90.3760345,12.9549661 L90.3760345,8.15750524 C90.3760345,7.38265762 90.2606317,6.88807403 89.9638816,6.54186552 C89.6506453,6.17917088 89.1560617,6.04728192 88.7274226,6.04728192 C87.7877138,6.04728192 86.8150327,6.65726835 86.2545046,7.31671314 C86.2709907,7.49806046 86.2709907,7.69589389 86.2709907,7.89372733 L86.2709907,7.89372733 L86.2709907,12.9549661 L84.78724,12.9549661 L84.78724,8.15750524 C84.78724,7.2837409 84.6883233,6.88807403 84.4080592,6.55835163 C84.0783368,6.17917088 83.6332116,6.04728192 83.1716002,6.04728192 C82.2154053,6.04728192 81.2592104,6.64078223 80.6986823,7.31671314 L80.6986823,7.31671314 L80.6986823,12.9549661 L79.2149315,12.9549661 L79.2149315,4.84379519 L80.6986823,4.84379519 L80.6986823,5.83296237 L80.7316545,5.84944849 C81.4075854,5.17351758 82.3637804,4.66244787 83.4848365,4.66244787 C84.4904898,4.66244787 85.479657,5.09108698 85.9742406,6.06376804 C86.9469217,5.14054534 87.9360888,4.66244787 89.057145,4.66244787 Z M35.5758248,0.178223319 C36.0374362,0.178223319 36.5155336,0.260653917 36.7957977,0.343084516 L36.7957977,0.343084516 L36.7957977,1.67846021 C36.4825614,1.59602961 35.9550056,1.53008513 35.6417693,1.53008513 C34.6196299,1.53008513 34.4382825,2.22250216 34.4382825,3.07978038 L34.4382825,3.07978038 L34.4382825,4.84379519 L36.5155336,4.84379519 L36.5155336,6.17917088 L34.4382825,6.17917088 L34.4382825,12.9549661 L32.9545318,12.9549661 L32.9545318,6.17917088 L31.6686144,6.17917088 L31.6686144,4.84379519 L32.9545318,4.84379519 L32.9545318,3.29409994 C32.9545318,2.23898828 33.1029068,1.41468229 33.679921,0.854154226 C34.1909907,0.359570635 34.8834078,0.178223319 35.5758248,0.178223319 Z M52.5403899,4.66244787 C53.4306403,4.66244787 54.1890019,4.97568415 54.7000716,5.55269833 C55.1451968,6.06376804 55.3760025,6.69024059 55.3760025,7.94318569 L55.3760025,7.94318569 L55.3760025,12.9549661 L53.8922517,12.9549661 L53.8922517,8.22344972 C53.8922517,7.38265762 53.7768489,6.88807403 53.5130709,6.57483775 C53.1833486,6.17917088 52.6557927,6.04728192 52.2106675,6.04728192 C51.2874448,6.04728192 50.2488192,6.62429611 49.6718051,7.39914374 L49.6718051,7.39914374 L49.6718051,12.9549661 L48.1880543,12.9549661 L48.1880543,4.84379519 L49.6718051,4.84379519 L49.6718051,5.86593461 L49.7047773,5.88242073 C50.4136804,5.17351758 51.4028476,4.66244787 52.5403899,4.66244787 Z M20.6551314,0.359570635 L20.6551314,12.9549661 L19.1713806,12.9549661 L19.1713806,0.359570635 L20.6551314,0.359570635 Z M59.4315879,4.84379519 L59.4315879,12.9549661 L57.9478371,12.9549661 L57.9478371,4.84379519 L59.4315879,4.84379519 Z M9.90815793,1.01901542 L9.90815793,2.43682171 L5.90203085,2.43682171 L5.90203085,12.9549661 L4.33584948,12.9549661 L4.33584948,2.43682171 L0.329722394,2.43682171 L0.329722394,1.01901542 L9.90815793,1.01901542 Z M108.065641,4.66244787 C108.955891,4.66244787 109.714253,4.97568415 110.225323,5.55269833 C110.670448,6.06376804 110.901254,6.69024059 110.901254,7.94318569 L110.901254,7.94318569 L110.901254,12.9549661 L109.417503,12.9549661 L109.417503,8.22344972 C109.417503,7.38265762 109.3021,6.88807403 109.038322,6.57483775 C108.7086,6.17917088 108.181044,6.04728192 107.735919,6.04728192 C106.812696,6.04728192 105.77407,6.62429611 105.197056,7.39914374 L105.197056,7.39914374 L105.197056,12.9549661 L103.713305,12.9549661 L103.713305,4.84379519 L105.197056,4.84379519 L105.197056,5.86593461 L105.230028,5.88242073 C105.938932,5.17351758 106.928099,4.66244787 108.065641,4.66244787 Z M73.3953313,9.3774781 C72.389678,9.3774781 71.4005108,9.67422825 71.4005108,10.6304232 C71.4005108,11.4217569 72.0764417,11.8174238 72.950206,11.8174238 C73.7250537,11.8174238 74.4834152,11.5041875 74.9779988,11.1085207 L74.9779988,11.1085207 L74.9779988,9.59179766 C74.5328735,9.4599087 73.906401,9.3774781 73.3953313,9.3774781 Z M41.8573843,6.01430969 C40.2417446,6.01430969 39.054744,7.26725478 39.054744,8.89938063 C39.054744,10.5315065 40.2417446,11.7844516 41.8573843,11.7844516 C43.4730241,11.7844516 44.6600247,10.5315065 44.6600247,8.89938063 C44.6600247,7.26725478 43.4730241,6.01430969 41.8573843,6.01430969 Z M26.7055373,5.99782357 C25.6339395,5.99782357 24.4799112,6.65726835 24.2161333,8.15750524 L24.2161333,8.15750524 L28.997108,8.15750524 C28.865219,6.54186552 27.6782184,5.99782357 26.7055373,5.99782357 Z M13.3352943,5.99782357 C12.2636965,5.99782357 11.1096681,6.65726835 10.8458902,8.15750524 L10.8458902,8.15750524 L15.6268649,8.15750524 C15.4949759,6.54186552 14.3079753,5.99782357 13.3352943,5.99782357 Z M97.877219,5.99782357 C96.8056212,5.99782357 95.6515928,6.65726835 95.3878149,8.15750524 L95.3878149,8.15750524 L100.16879,8.15750524 C100.036901,6.54186552 98.8499001,5.99782357 97.877219,5.99782357 Z M123.130482,5.99782357 C122.058885,5.99782357 120.904856,6.65726835 120.641078,8.15750524 L120.641078,8.15750524 L125.422053,8.15750524 C125.290164,6.54186552 124.103163,5.99782357 123.130482,5.99782357 Z M43.8357187,0.969557064 L42.0222455,3.67328069 L40.9011894,3.67328069 L42.1706206,0.969557064 L43.8357187,0.969557064 Z M58.6897125,1.01901542 C59.2667267,1.01901542 59.7283381,1.48062677 59.7283381,2.05764096 C59.7283381,2.63465515 59.2667267,3.0962665 58.6897125,3.0962665 C58.1126983,3.0962665 57.651087,2.63465515 57.651087,2.05764096 C57.651087,1.48062677 58.1126983,1.01901542 58.6897125,1.01901542 Z" id="Combined-Shape"></path>
            </g>
        </g>
    </g>
</svg>