<?xml version="1.0" encoding="UTF-8"?>
<svg width="63px" height="72px" viewBox="0 0 63 72" version="1.1" xmlns="http://www.w3.org/2000/svg" xmlns:xlink="http://www.w3.org/1999/xlink">
    <title>tienda</title>
    <g id="Page-1" stroke="none" stroke-width="1" fill="none" fill-rule="evenodd">
        <g id="tienda" transform="translate(1.107033, 0.888032)">
            <polyline id="Path" stroke="#01765B" stroke-width="0.740283775" stroke-linecap="round" points="5.0006169 38.9241209 5.0006169 13.1104257 40.4824183 0.218383714 45.7717458 0.218383714 45.7717458 11.7594078"></polyline>
            <polyline id="Path" stroke="#01765B" stroke-width="0.740283775" stroke-linecap="round" points="24.3553362 38.9241209 24.3553362 13.1215299 52.3491672 13.1215299 52.3491672 38.9241209"></polyline>
            <path d="M31.5212832,22.7970389 L44.6057989,22.7970389 C45.0023809,22.7970389 45.3238742,23.1185321 45.3238742,23.5151141 L45.3238742,38.9278223 L30.8069093,38.9278223 L30.8069093,23.5151141 C30.8069093,23.1199731 31.1261474,22.7990757 31.5212832,22.7970389 L31.5212832,22.7970389 Z" id="Path" stroke="#01765B" stroke-width="0.740283775" stroke-linecap="round"></path>
            <rect id="Rectangle" stroke="#01765B" stroke-width="0.740283775" stroke-linecap="round" x="8.22825416" y="22.7970389" width="11.2893276" height="16.127082"></rect>
            <line x1="24.3553362" y1="22.7970389" x2="52.3491672" y2="22.7970389" id="Path" stroke="#01765B" stroke-width="0.740283775" stroke-linecap="round"></line>
            <line x1="38.0653917" y1="38.120913" x2="38.0653917" y2="24.0111043" id="Path" stroke="#01765B" stroke-width="0.740283775" stroke-linecap="round"></line>
            <line x1="19.0697101" y1="26.0246761" x2="8.67242443" y2="26.0246761" id="Path" stroke="#01765B" stroke-width="0.740283775" stroke-linecap="round"></line>
            <line x1="18.5589143" y1="35.7001851" x2="9.18692165" y2="35.7001851" id="Path" stroke="#01765B" stroke-width="0.740283775" stroke-linecap="round"></line>
            <line x1="18.5589143" y1="30.8624306" x2="9.18692165" y2="30.8624306" id="Path" stroke="#01765B" stroke-width="0.740283775" stroke-linecap="round"></line>
            <line x1="0.162862431" y1="38.9278223" x2="55.0845157" y2="38.9278223" id="Path" stroke="#01765B" stroke-width="0.740283775" stroke-linecap="round"></line>
            <path d="M6.53828994,70.2529303 L6.53828994,60.1799112 L10.4784725,60.1799112 L10.4784725,58.3169796 L0.537342381,58.3169796 L0.537342381,60.1799112 L4.44455275,60.1799112 L4.44455275,70.2529303 L6.53828994,70.2529303 Z M14.0889328,70.2529303 L14.0889328,58.3169796 L11.9951956,58.3169796 L11.9951956,70.2529303 L14.0889328,70.2529303 Z M23.7992572,70.2529303 L23.7992572,68.3899988 L18.6061295,68.3899988 L18.6061295,64.9279136 L22.9749513,64.9279136 L22.9749513,63.1474127 L18.6061295,63.1474127 L18.6061295,60.1799112 L23.6343961,60.1799112 L23.6343961,58.3169796 L16.5123924,58.3169796 L16.5123924,70.2529303 L23.7992572,70.2529303 Z M27.6899815,70.2529303 L27.6899815,65.2411499 C27.6899815,63.9717187 27.6899815,62.7517458 27.6570093,61.6306897 L27.6899815,61.6142036 C28.3823985,62.5703985 29.0748155,63.5101073 29.8166909,64.4992745 L34.1360543,70.2529303 L36.1143886,70.2529303 L36.1143886,58.3169796 L34.0865959,58.3169796 L34.0865959,63.32876 C34.0865959,64.5981912 34.0865959,65.8181641 34.1195682,66.9392202 L34.0865959,66.9557064 C33.3941789,65.9995114 32.7017619,65.0598026 31.9598865,64.0706354 L27.6405231,58.3169796 L25.6621888,58.3169796 L25.6621888,70.2529303 L27.6899815,70.2529303 Z M41.5877804,70.2529303 C43.879351,70.2529303 45.527963,69.8572634 46.764422,68.9175546 C48.149256,67.8789291 48.9405898,66.1973448 48.9405898,64.2519827 C48.9405898,62.1912178 48.0503393,60.427203 46.4676718,59.4050635 C45.247699,58.6137298 43.6980037,58.3169796 41.8515583,58.3169796 L38.5378482,58.3169796 L38.5378482,70.2529303 L41.5877804,70.2529303 Z M41.7691277,68.3899988 L40.6315854,68.3899988 L40.6315854,60.1799112 L41.7526416,60.1799112 C43.055045,60.1799112 44.2585318,60.295314 45.1982406,60.9382727 C46.1874078,61.6142036 46.8468526,62.7847181 46.8468526,64.2684688 C46.8468526,65.7027613 46.2368661,66.8567896 45.3136434,67.5327205 C44.4563652,68.1591931 43.3353091,68.3899988 41.7691277,68.3899988 Z M51.2651326,70.2529303 L52.419161,67.3348871 L57.5628304,67.3348871 L58.7003726,70.2529303 L60.9259988,70.2529303 L56.0461073,58.3169796 L54.0018285,58.3169796 L49.105451,70.2529303 L51.2651326,70.2529303 Z M56.8868994,65.6203307 L53.0950919,65.6203307 L53.7875089,63.8233436 C54.1996619,62.7517458 54.5788427,61.7296064 54.9745096,60.6250364 L55.0074818,60.6250364 C55.3866626,61.6966342 55.7823294,62.7517458 56.1944824,63.8233436 L56.8868994,65.6203307 Z" id="TIENDA" fill="#01765B" fill-rule="nonzero"></path>
        </g>
    </g>
</svg>